<svg width="44" height="44" viewBox="0 0 44 44" fill="none" xmlns="http://www.w3.org/2000/svg">
<rect width="44" height="44" rx="4" fill="#FFE8FF"/>
<path d="M22 37C30.2843 37 37 30.2843 37 22C37 13.7157 30.2843 7 22 7C13.7157 7 7 13.7157 7 22C7 30.2843 13.7157 37 22 37Z" stroke="#FF75BB" stroke-width="2" stroke-linecap="round" stroke-linejoin="round"/>
<path d="M7 22H37" stroke="#FF75BB" stroke-width="2" stroke-linecap="round" stroke-linejoin="round"/>
<path d="M22 7C25.7519 11.1075 27.8841 16.4381 28 22C27.8841 27.5619 25.7519 32.8925 22 37C18.2481 32.8925 16.1159 27.5619 16 22C16.1159 16.4381 18.2481 11.1075 22 7V7Z" stroke="#FF75BB" stroke-width="2" stroke-linecap="round" stroke-linejoin="round"/>
</svg>
