<svg width="30" height="30" viewBox="0 0 30 30" fill="none" xmlns="http://www.w3.org/2000/svg">
<path d="M11.9185 2.80747C13.4921 1.25694 16.0434 1.25695 17.617 2.80747L22.1516 7.27565L14.7678 14.5513L7.38388 7.27565L11.9185 2.80747Z" fill="#6266EA"/>
<path d="M22.1516 7.27588L26.6862 11.7441C28.2598 13.2946 28.2598 15.8085 26.6862 17.359L25.0008 19.0197C23.4272 20.5702 20.8759 20.5702 19.3023 19.0197L14.7677 14.5515L22.1516 7.27588Z" fill="#FFD686"/>
<path d="M7.38385 7.27588L14.7677 14.5515L10.2331 19.0197C8.65949 20.5702 6.10821 20.5702 4.53462 19.0197L2.8492 17.359C1.27561 15.8085 1.27561 13.2946 2.8492 11.7441L7.38385 7.27588Z" fill="#FF75BB"/>
</svg>
