<svg width="109" height="37" viewBox="0 0 109 37" fill="none" xmlns="http://www.w3.org/2000/svg">
<path d="M37.92 26H39.684V8.36H37.92V26ZM48.6936 26.36C49.9736 26.36 51.0696 26.072 51.9816 25.496C52.9016 24.92 53.6056 24.12 54.0936 23.096C54.5896 22.064 54.8376 20.868 54.8376 19.508C54.8376 18.172 54.5936 16.992 54.1056 15.968C53.6256 14.936 52.9256 14.132 52.0056 13.556C51.0936 12.972 49.9896 12.68 48.6936 12.68C47.4296 12.68 46.3376 12.968 45.4176 13.544C44.5056 14.112 43.8016 14.908 43.3056 15.932C42.8096 16.956 42.5616 18.148 42.5616 19.508C42.5616 20.844 42.8016 22.028 43.2816 23.06C43.7696 24.092 44.4696 24.9 45.3816 25.484C46.3016 26.068 47.4056 26.36 48.6936 26.36ZM48.6936 24.668C47.2936 24.668 46.2336 24.2 45.5136 23.264C44.7936 22.32 44.4336 21.068 44.4336 19.508C44.4336 17.996 44.7816 16.764 45.4776 15.812C46.1736 14.852 47.2456 14.372 48.6936 14.372C50.1256 14.372 51.1936 14.84 51.8976 15.776C52.6096 16.704 52.9656 17.948 52.9656 19.508C52.9656 21.036 52.6136 22.28 51.9096 23.24C51.2056 24.192 50.1336 24.668 48.6936 24.668ZM57.4847 26H59.2487V19.532C59.2487 18.756 59.3367 17.984 59.5127 17.216C59.6967 16.44 60.1127 15.796 60.7607 15.284C61.2327 14.9 61.7447 14.68 62.2967 14.624C62.8567 14.56 63.3767 14.584 63.8567 14.696V13.04C63.2887 12.896 62.6447 12.892 61.9247 13.028C61.2047 13.156 60.5887 13.444 60.0767 13.892C59.6927 14.18 59.3567 14.58 59.0687 15.092V13.04H57.4847V26ZM71.3828 26.36C72.6388 26.36 73.7628 26.052 74.7548 25.436C75.7548 24.82 76.5108 23.944 77.0228 22.808L75.3788 22.172C74.5548 23.836 73.1988 24.668 71.3108 24.668C70.0148 24.668 68.9988 24.264 68.2628 23.456C67.5348 22.648 67.1348 21.5 67.0628 20.012H77.2748C77.3388 17.724 76.8388 15.932 75.7748 14.636C74.7188 13.332 73.2308 12.68 71.3108 12.68C70.0628 12.68 68.9788 12.96 68.0588 13.52C67.1468 14.08 66.4388 14.876 65.9348 15.908C65.4308 16.94 65.1788 18.164 65.1788 19.58C65.1788 20.948 65.4308 22.14 65.9348 23.156C66.4468 24.172 67.1668 24.96 68.0948 25.52C69.0308 26.08 70.1268 26.36 71.3828 26.36ZM71.3588 14.3C73.7988 14.3 75.1548 15.712 75.4268 18.536H67.0988C67.2348 17.168 67.6668 16.12 68.3948 15.392C69.1228 14.664 70.1108 14.3 71.3588 14.3ZM84.7978 26.372C85.7338 26.372 86.5538 26.212 87.2578 25.892C87.9698 25.564 88.5618 25.12 89.0338 24.56V26H91.5898V13.04H88.6858V19.7C88.6858 20.748 88.5338 21.56 88.2298 22.136C87.9338 22.704 87.5538 23.1 87.0898 23.324C86.6258 23.54 86.1458 23.648 85.6498 23.648C84.9618 23.648 84.4138 23.5 84.0058 23.204C83.5978 22.9 83.2938 22.52 83.0938 22.064C82.9018 21.6 82.7738 21.12 82.7098 20.624C82.6538 20.128 82.6258 19.68 82.6258 19.28V13.04H79.6978V20.276C79.6978 20.58 79.7218 20.984 79.7698 21.488C79.8258 21.992 79.9418 22.524 80.1178 23.084C80.2938 23.644 80.5658 24.176 80.9338 24.68C81.3018 25.176 81.7978 25.584 82.4218 25.904C83.0538 26.216 83.8458 26.372 84.7978 26.372ZM94.9373 31.76H97.8533V25.34C98.2933 25.66 98.7893 25.908 99.3412 26.084C99.9013 26.268 100.517 26.36 101.189 26.36C102.389 26.36 103.429 26.06 104.309 25.46C105.197 24.86 105.885 24.044 106.373 23.012C106.861 21.98 107.105 20.816 107.105 19.52C107.105 18.208 106.857 17.036 106.361 16.004C105.873 14.972 105.177 14.16 104.273 13.568C103.369 12.976 102.305 12.68 101.081 12.68C100.345 12.68 99.6773 12.792 99.0773 13.016C98.4773 13.24 97.9493 13.56 97.4933 13.976V13.04H94.9373V31.76ZM100.745 23.768C99.5853 23.768 98.7533 23.376 98.2493 22.592C97.7453 21.8 97.4933 20.776 97.4933 19.52C97.4933 18.256 97.7413 17.232 98.2373 16.448C98.7413 15.664 99.5453 15.272 100.649 15.272C101.425 15.272 102.061 15.464 102.557 15.848C103.061 16.224 103.433 16.736 103.673 17.384C103.921 18.024 104.045 18.736 104.045 19.52C104.045 20.312 103.925 21.028 103.685 21.668C103.453 22.308 103.093 22.82 102.605 23.204C102.117 23.58 101.497 23.768 100.745 23.768Z" fill="#373737"/>
<path d="M11.9394 9.82843C13.5015 8.26633 16.0342 8.26633 17.5962 9.82843L22.1517 14.3839L14.7678 21.7678L7.38394 14.3839L11.9394 9.82843Z" fill="#6266EA"/>
<path d="M22.1516 14.3839L26.7071 18.9393C28.2692 20.5014 28.2692 23.0341 26.7071 24.5962L24.98 26.3232C23.4179 27.8853 20.8853 27.8853 19.3232 26.3232L14.7677 21.7678L22.1516 14.3839Z" fill="#FFD686"/>
<path d="M7.38391 14.3839L14.7678 21.7678L10.2123 26.3232C8.65024 27.8853 6.11758 27.8853 4.55548 26.3232L2.82846 24.5962C1.26636 23.0341 1.26636 20.5014 2.82846 18.9393L7.38391 14.3839Z" fill="#FF75BB"/>
</svg>
