<svg width="52" height="52" viewBox="0 0 52 52" fill="none" xmlns="http://www.w3.org/2000/svg">
<circle cx="26" cy="26" r="26" fill="#7D80EF"/>
<path d="M16.12 32H18.088V20.48H16.12L13.96 21.776V23.904L16.12 22.584V32ZM20.8156 31.984H28.7436V30.168H23.7996L26.7516 27.552C27.189 27.168 27.5543 26.8187 27.8476 26.504C28.1463 26.184 28.3703 25.84 28.5196 25.472C28.669 25.0987 28.7436 24.6373 28.7436 24.088C28.7436 23.336 28.573 22.672 28.2316 22.096C27.8956 21.5147 27.437 21.0613 26.8556 20.736C26.2743 20.4053 25.613 20.24 24.8716 20.24C24.077 20.24 23.3756 20.3973 22.7676 20.712C22.1596 21.0267 21.685 21.4693 21.3436 22.04C21.0023 22.6107 20.8316 23.28 20.8316 24.048H22.8156C22.805 23.696 22.885 23.368 23.0556 23.064C23.2263 22.76 23.4636 22.5173 23.7676 22.336C24.077 22.1493 24.4316 22.056 24.8316 22.056C25.4023 22.056 25.8663 22.248 26.2236 22.632C26.5863 23.0107 26.7676 23.488 26.7676 24.064C26.7676 24.3467 26.6903 24.64 26.5356 24.944C26.3863 25.248 26.1223 25.5707 25.7436 25.912L20.8156 30.304V31.984ZM33.9629 32.216C34.6829 32.216 35.3389 32.0507 35.9309 31.72C36.5282 31.384 37.0029 30.928 37.3549 30.352C37.7122 29.776 37.8909 29.1253 37.8909 28.4C37.8909 27.8187 37.7815 27.2773 37.5629 26.776C37.3442 26.2747 37.0269 25.8507 36.6109 25.504C36.1949 25.1573 35.6909 24.9227 35.0989 24.8L37.6989 22.304V20.48H30.6349V22.296H35.4029L32.0749 25.144L32.9549 26.664C33.2855 26.4827 33.6189 26.392 33.9549 26.392C34.5362 26.392 35.0109 26.584 35.3789 26.968C35.7469 27.352 35.9309 27.8293 35.9309 28.4C35.9309 28.9653 35.7415 29.4373 35.3629 29.816C34.9895 30.1947 34.5202 30.3867 33.9549 30.392C33.5335 30.3973 33.1442 30.2773 32.7869 30.032C32.4295 29.7813 32.1842 29.4267 32.0509 28.968L30.1869 29.472C30.3522 30.0267 30.6215 30.512 30.9949 30.928C31.3735 31.3387 31.8189 31.656 32.3309 31.88C32.8429 32.104 33.3869 32.216 33.9629 32.216Z" fill="white"/>
</svg>
