<svg width="44" height="44" viewBox="0 0 44 44" fill="none" xmlns="http://www.w3.org/2000/svg">
<rect width="44" height="44" rx="4" fill="#E6F1FF"/>
<path d="M12.3322 16.256C11.6069 16.256 10.9429 16.4293 10.3402 16.776C9.73752 17.1173 9.25219 17.5813 8.88419 18.168C8.52152 18.7493 8.34019 19.4 8.34019 20.12C8.34019 20.8453 8.49752 21.4933 8.81219 22.064C9.13219 22.6293 9.56952 23.0773 10.1242 23.408C10.6842 23.7333 11.3269 23.896 12.0522 23.896C12.9215 23.896 13.6869 23.608 14.3482 23.032V24.2C14.3482 24.5893 14.2549 24.9547 14.0682 25.296C13.8815 25.6373 13.6202 25.9147 13.2842 26.128C12.9535 26.336 12.5642 26.44 12.1162 26.44C11.8015 26.44 11.4975 26.3707 11.2042 26.232C10.9109 26.0933 10.6629 25.904 10.4602 25.664L9.06819 27.016C9.47352 27.4427 9.93485 27.7547 10.4522 27.952C10.9749 28.144 11.5295 28.24 12.1162 28.24C12.9535 28.24 13.6869 28.064 14.3162 27.712C14.9455 27.3547 15.4362 26.856 15.7882 26.216C16.1402 25.5707 16.3162 24.8107 16.3162 23.936V20.432C16.3162 19.616 16.1402 18.8933 15.7882 18.264C15.4362 17.6347 14.9589 17.144 14.3562 16.792C13.7589 16.4347 13.0842 16.256 12.3322 16.256ZM12.3322 18.104C12.7055 18.104 13.0442 18.1973 13.3482 18.384C13.6522 18.5653 13.8949 18.8107 14.0762 19.12C14.2575 19.424 14.3482 19.7573 14.3482 20.12C14.3482 20.4933 14.2549 20.8347 14.0682 21.144C13.8869 21.4533 13.6415 21.7013 13.3322 21.888C13.0282 22.0693 12.6895 22.16 12.3162 22.16C11.9429 22.16 11.6015 22.0693 11.2922 21.888C10.9882 21.7013 10.7455 21.4533 10.5642 21.144C10.3829 20.8347 10.2922 20.4933 10.2922 20.12C10.2922 19.7467 10.3829 19.408 10.5642 19.104C10.7509 18.8 10.9989 18.5573 11.3082 18.376C11.6175 18.1947 11.9589 18.104 12.3322 18.104ZM22.2697 16.256C21.5444 16.256 20.8804 16.4293 20.2777 16.776C19.675 17.1173 19.1897 17.5813 18.8217 18.168C18.459 18.7493 18.2777 19.4 18.2777 20.12C18.2777 20.8453 18.435 21.4933 18.7497 22.064C19.0697 22.6293 19.507 23.0773 20.0617 23.408C20.6217 23.7333 21.2644 23.896 21.9897 23.896C22.859 23.896 23.6244 23.608 24.2857 23.032V24.2C24.2857 24.5893 24.1924 24.9547 24.0057 25.296C23.819 25.6373 23.5577 25.9147 23.2217 26.128C22.891 26.336 22.5017 26.44 22.0537 26.44C21.739 26.44 21.435 26.3707 21.1417 26.232C20.8484 26.0933 20.6004 25.904 20.3977 25.664L19.0057 27.016C19.411 27.4427 19.8724 27.7547 20.3897 27.952C20.9124 28.144 21.467 28.24 22.0537 28.24C22.891 28.24 23.6244 28.064 24.2537 27.712C24.883 27.3547 25.3737 26.856 25.7257 26.216C26.0777 25.5707 26.2537 24.8107 26.2537 23.936V20.432C26.2537 19.616 26.0777 18.8933 25.7257 18.264C25.3737 17.6347 24.8964 17.144 24.2937 16.792C23.6964 16.4347 23.0217 16.256 22.2697 16.256ZM22.2697 18.104C22.643 18.104 22.9817 18.1973 23.2857 18.384C23.5897 18.5653 23.8324 18.8107 24.0137 19.12C24.195 19.424 24.2857 19.7573 24.2857 20.12C24.2857 20.4933 24.1924 20.8347 24.0057 21.144C23.8244 21.4533 23.579 21.7013 23.2697 21.888C22.9657 22.0693 22.627 22.16 22.2537 22.16C21.8804 22.16 21.539 22.0693 21.2297 21.888C20.9257 21.7013 20.683 21.4533 20.5017 21.144C20.3204 20.8347 20.2297 20.4933 20.2297 20.12C20.2297 19.7467 20.3204 19.408 20.5017 19.104C20.6884 18.8 20.9364 18.5573 21.2457 18.376C21.555 18.1947 21.8964 18.104 22.2697 18.104ZM31.1912 25.856H32.7032V22.992H35.5512V21.48H32.7032V18.624H31.1912V21.48H28.3272V22.992H31.1912V25.856Z" fill="#7459FF"/>
</svg>
