<svg width="151" height="28" viewBox="0 0 151 28" fill="none" xmlns="http://www.w3.org/2000/svg">
<path d="M13.7498 1.43819C13.9009 0.980522 14.5483 0.980521 14.6994 1.43819L17.3049 9.33051C17.3726 9.53538 17.564 9.67376 17.7797 9.67376H26.1942C26.6805 9.67376 26.8806 10.2976 26.4851 10.5805L19.6914 15.4384C19.5133 15.5658 19.4388 15.7941 19.5074 16.0019L22.1056 23.872C22.2572 24.3313 21.7334 24.7168 21.34 24.4355L14.5155 19.5555C14.3415 19.4311 14.1077 19.4311 13.9338 19.5555L7.10932 24.4355C6.71591 24.7168 6.19208 24.3313 6.3437 23.872L8.94188 16.0019C9.01049 15.7941 8.93595 15.5658 8.75791 15.4384L1.96421 10.5805C1.56865 10.2976 1.76876 9.67376 2.25505 9.67376H10.6695C10.8853 9.67376 11.0767 9.53538 11.1443 9.33051L13.7498 1.43819Z" fill="#FFD686"/>
<path d="M44.3875 1.43819C44.5386 0.980522 45.186 0.980521 45.3371 1.43819L47.9426 9.33051C48.0103 9.53538 48.2017 9.67376 48.4174 9.67376H56.8319C57.3182 9.67376 57.5183 10.2976 57.1228 10.5805L50.3291 15.4384C50.151 15.5658 50.0765 15.7941 50.1451 16.0019L52.7433 23.872C52.8949 24.3313 52.3711 24.7168 51.9776 24.4355L45.1532 19.5555C44.9792 19.4311 44.7454 19.4311 44.5715 19.5555L37.747 24.4355C37.3536 24.7168 36.8298 24.3313 36.9814 23.872L39.5796 16.0019C39.6482 15.7941 39.5736 15.5658 39.3956 15.4384L32.6019 10.5805C32.2063 10.2976 32.4065 9.67376 32.8927 9.67376H41.3072C41.523 9.67376 41.7144 9.53538 41.782 9.33051L44.3875 1.43819Z" fill="#FFD686"/>
<path d="M75.0252 1.43819C75.1763 0.980522 75.8237 0.980521 75.9748 1.43819L78.5803 9.33051C78.648 9.53538 78.8394 9.67376 79.0551 9.67376H87.4696C87.9559 9.67376 88.156 10.2976 87.7605 10.5805L80.9668 15.4384C80.7887 15.5658 80.7142 15.7941 80.7828 16.0019L83.381 23.872C83.5326 24.3313 83.0088 24.7168 82.6153 24.4355L75.7909 19.5555C75.6169 19.4311 75.3831 19.4311 75.2092 19.5555L68.3847 24.4355C67.9913 24.7168 67.4675 24.3313 67.6191 23.872L70.2173 16.0019C70.2859 15.7941 70.2113 15.5658 70.0333 15.4384L63.2396 10.5805C62.844 10.2976 63.0441 9.67376 63.5304 9.67376H71.9449C72.1607 9.67376 72.3521 9.53538 72.4197 9.33051L75.0252 1.43819Z" fill="#FFD686"/>
<path d="M105.663 1.43819C105.814 0.980522 106.461 0.980521 106.612 1.43819L109.218 9.33051C109.286 9.53538 109.477 9.67376 109.693 9.67376H118.107C118.594 9.67376 118.794 10.2976 118.398 10.5805L111.604 15.4384C111.426 15.5658 111.352 15.7941 111.42 16.0019L114.019 23.872C114.17 24.3313 113.646 24.7168 113.253 24.4355L106.428 19.5555C106.255 19.4311 106.021 19.4311 105.847 19.5555L99.0223 24.4355C98.6289 24.7168 98.1051 24.3313 98.2567 23.872L100.855 16.0019C100.924 15.7941 100.849 15.5658 100.671 15.4384L93.8772 10.5805C93.4817 10.2976 93.6818 9.67376 94.1681 9.67376H102.583C102.798 9.67376 102.99 9.53538 103.057 9.33051L105.663 1.43819Z" fill="#FFD686"/>
<path d="M136.301 1.43819C136.452 0.980522 137.099 0.980521 137.25 1.43819L139.856 9.33051C139.923 9.53538 140.115 9.67376 140.33 9.67376H148.745C149.231 9.67376 149.431 10.2976 149.036 10.5805L142.242 15.4384C142.064 15.5658 141.99 15.7941 142.058 16.0019L144.656 23.872C144.808 24.3313 144.284 24.7168 143.891 24.4355L137.066 19.5555C136.892 19.4311 136.658 19.4311 136.485 19.5555L129.66 24.4355C129.267 24.7168 128.743 24.3313 128.894 23.872L131.493 16.0019C131.561 15.7941 131.487 15.5658 131.309 15.4384L124.515 10.5805C124.119 10.2976 124.319 9.67376 124.806 9.67376H133.22C133.436 9.67376 133.627 9.53538 133.695 9.33051L136.301 1.43819Z" fill="#FFD686"/>
</svg>
