<svg width="104" height="104" viewBox="0 0 104 104" fill="none" xmlns="http://www.w3.org/2000/svg">
<path d="M52 95.3333C75.9323 95.3333 95.3333 75.9323 95.3333 52C95.3333 28.0676 75.9323 8.66663 52 8.66663C28.0676 8.66663 8.66663 28.0676 8.66663 52C8.66663 75.9323 28.0676 95.3333 52 95.3333Z" stroke="#6266EA" stroke-width="4" stroke-linecap="round" stroke-linejoin="round"/>
<path d="M52 78C66.3594 78 78 66.3594 78 52C78 37.6406 66.3594 26 52 26C37.6406 26 26 37.6406 26 52C26 66.3594 37.6406 78 52 78Z" stroke="#FFD686" stroke-width="4" stroke-linecap="round" stroke-linejoin="round"/>
<path d="M52 60.6667C56.7865 60.6667 60.6667 56.7865 60.6667 52C60.6667 47.2136 56.7865 43.3334 52 43.3334C47.2136 43.3334 43.3334 47.2136 43.3334 52C43.3334 56.7865 47.2136 60.6667 52 60.6667Z" stroke="#FF75BB" stroke-width="3" stroke-linecap="round" stroke-linejoin="round"/>
</svg>
