<svg width="231" height="207" viewBox="0 0 231 207" fill="none" xmlns="http://www.w3.org/2000/svg">
<g filter="url(#filter0_f)">
<rect x="24" y="83" width="183" height="100" rx="17" fill="black" fill-opacity="0.08"/>
</g>
<rect width="230" height="173" rx="4" fill="white"/>
<path d="M25.12 74H26.248V65.104L30.344 74H31.104L35.208 65.104V73.992H36.328V62.48H35.232L30.728 72.168L26.2 62.48H25.12V74ZM38.7331 63.72H39.9091V62.4H38.7331V63.72ZM38.7331 74H39.9091V65.36H38.7331V74ZM42.2995 74H43.4835V69.392C43.4835 68.416 43.7022 67.6507 44.1395 67.096C44.5768 66.5413 45.2115 66.264 46.0435 66.264C46.6462 66.264 47.1315 66.4107 47.4995 66.704C47.8675 66.992 48.1342 67.3867 48.2995 67.888C48.4648 68.3893 48.5475 68.9573 48.5475 69.592V74H49.7315V69.248C49.7315 68.7627 49.6702 68.2773 49.5475 67.792C49.4302 67.3067 49.2382 66.864 48.9715 66.464C48.7048 66.064 48.3502 65.744 47.9075 65.504C47.4648 65.264 46.9182 65.144 46.2675 65.144C45.6488 65.144 45.0888 65.264 44.5875 65.504C44.0915 65.7387 43.6835 66.0907 43.3635 66.56V65.36H42.2995V74ZM54.2795 74.24C55.7888 74.24 56.8848 73.6827 57.5675 72.568V74H58.6155V68.632C58.6155 68.312 58.5995 67.9973 58.5675 67.688C58.5355 67.3787 58.4662 67.0987 58.3595 66.848C58.1302 66.288 57.7382 65.8613 57.1835 65.568C56.6342 65.2693 55.9648 65.12 55.1755 65.12C54.2262 65.12 53.4528 65.3333 52.8555 65.76C52.2582 66.1867 51.8582 66.7867 51.6555 67.56L52.7995 67.896C52.9648 67.32 53.2502 66.8987 53.6555 66.632C54.0662 66.3653 54.5675 66.232 55.1595 66.232C55.9808 66.232 56.5675 66.424 56.9195 66.808C57.2715 67.1867 57.4528 67.7653 57.4635 68.544C57.0795 68.5973 56.6555 68.6533 56.1915 68.712C55.7328 68.7707 55.2715 68.8373 54.8075 68.912C54.3435 68.9867 53.9168 69.072 53.5275 69.168C52.8822 69.3387 52.3542 69.624 51.9435 70.024C51.5328 70.4187 51.3275 70.9707 51.3275 71.68C51.3275 72.1387 51.4368 72.5627 51.6555 72.952C51.8742 73.3413 52.2022 73.6533 52.6395 73.888C53.0822 74.1227 53.6288 74.24 54.2795 74.24ZM54.4155 73.224C53.9515 73.224 53.5782 73.1493 53.2955 73C53.0182 72.8453 52.8155 72.6507 52.6875 72.416C52.5648 72.176 52.5035 71.9307 52.5035 71.68C52.5035 71.2107 52.6608 70.8587 52.9755 70.624C53.2902 70.3893 53.6315 70.2187 53.9995 70.112C54.4742 69.984 55.0262 69.88 55.6555 69.8C56.2848 69.72 56.8822 69.6453 57.4475 69.576C57.4475 69.7733 57.4395 70 57.4235 70.256C57.4128 70.5067 57.3835 70.7387 57.3355 70.952C57.2235 71.6027 56.9142 72.144 56.4075 72.576C55.9062 73.008 55.2422 73.224 54.4155 73.224ZM65.4021 74V72.968C64.7835 73.0693 64.2635 73.0853 63.8421 73.016C63.4261 72.9467 63.1221 72.7333 62.9301 72.376C62.8288 72.1893 62.7728 71.976 62.7621 71.736C62.7568 71.4907 62.7541 71.1867 62.7541 70.824V66.368H65.4021V65.36H62.7541V62.96H61.5861V65.36H59.7381V66.368H61.5861V70.872C61.5861 71.2933 61.5915 71.6693 61.6021 72C61.6181 72.3307 61.7035 72.6533 61.8581 72.968C62.0501 73.352 62.3301 73.6347 62.6981 73.816C63.0715 73.9973 63.4928 74.0987 63.9621 74.12C64.4368 74.1413 64.9168 74.1013 65.4021 74ZM70.2995 74H71.3555V72.792C71.6648 73.24 72.0568 73.5947 72.5315 73.856C73.0062 74.112 73.5582 74.24 74.1875 74.24C74.9982 74.24 75.6888 74.04 76.2595 73.64C76.8302 73.2347 77.2648 72.688 77.5635 72C77.8675 71.312 78.0195 70.536 78.0195 69.672C78.0195 68.8133 77.8675 68.04 77.5635 67.352C77.2648 66.664 76.8328 66.12 76.2675 65.72C75.7022 65.32 75.0248 65.12 74.2355 65.12C73.6382 65.12 73.1075 65.232 72.6435 65.456C72.1848 65.6747 71.7982 65.9813 71.4835 66.376V62.48H70.2995V74ZM74.0675 73.144C73.4542 73.144 72.9475 72.9947 72.5475 72.696C72.1475 72.392 71.8488 71.9787 71.6515 71.456C71.4542 70.9333 71.3555 70.3387 71.3555 69.672C71.3555 68.6533 71.5768 67.824 72.0195 67.184C72.4675 66.5387 73.1422 66.216 74.0435 66.216C74.6622 66.216 75.1715 66.368 75.5715 66.672C75.9768 66.976 76.2782 67.3893 76.4755 67.912C76.6728 68.4347 76.7715 69.0213 76.7715 69.672C76.7715 70.328 76.6702 70.9173 76.4675 71.44C76.2702 71.9627 75.9715 72.3787 75.5715 72.688C75.1715 72.992 74.6702 73.144 74.0675 73.144ZM82.2483 74.24C83.7576 74.24 84.8536 73.6827 85.5363 72.568V74H86.5843V68.632C86.5843 68.312 86.5683 67.9973 86.5363 67.688C86.5043 67.3787 86.4349 67.0987 86.3283 66.848C86.0989 66.288 85.7069 65.8613 85.1523 65.568C84.6029 65.2693 83.9336 65.12 83.1443 65.12C82.1949 65.12 81.4216 65.3333 80.8243 65.76C80.2269 66.1867 79.8269 66.7867 79.6243 67.56L80.7682 67.896C80.9336 67.32 81.2189 66.8987 81.6243 66.632C82.0349 66.3653 82.5363 66.232 83.1283 66.232C83.9496 66.232 84.5363 66.424 84.8883 66.808C85.2403 67.1867 85.4216 67.7653 85.4323 68.544C85.0483 68.5973 84.6243 68.6533 84.1603 68.712C83.7016 68.7707 83.2403 68.8373 82.7763 68.912C82.3123 68.9867 81.8856 69.072 81.4963 69.168C80.8509 69.3387 80.3229 69.624 79.9123 70.024C79.5016 70.4187 79.2963 70.9707 79.2963 71.68C79.2963 72.1387 79.4056 72.5627 79.6243 72.952C79.8429 73.3413 80.1709 73.6533 80.6083 73.888C81.0509 74.1227 81.5976 74.24 82.2483 74.24ZM82.3843 73.224C81.9203 73.224 81.5469 73.1493 81.2643 73C80.9869 72.8453 80.7843 72.6507 80.6562 72.416C80.5336 72.176 80.4723 71.9307 80.4723 71.68C80.4723 71.2107 80.6296 70.8587 80.9443 70.624C81.2589 70.3893 81.6003 70.2187 81.9683 70.112C82.4429 69.984 82.9949 69.88 83.6243 69.8C84.2536 69.72 84.8509 69.6453 85.4163 69.576C85.4163 69.7733 85.4083 70 85.3923 70.256C85.3816 70.5067 85.3523 70.7387 85.3043 70.952C85.1923 71.6027 84.8829 72.144 84.3763 72.576C83.8749 73.008 83.2109 73.224 82.3843 73.224ZM88.6589 74H89.8509V69.84L94.0909 74H95.8029L91.2269 69.68L95.2749 65.36H93.7069L89.8509 69.52V62.48H88.6669L88.6589 74ZM99.0764 74.24C100.586 74.24 101.682 73.6827 102.364 72.568V74H103.412V68.632C103.412 68.312 103.396 67.9973 103.364 67.688C103.332 67.3787 103.263 67.0987 103.156 66.848C102.927 66.288 102.535 65.8613 101.98 65.568C101.431 65.2693 100.762 65.12 99.9724 65.12C99.023 65.12 98.2497 65.3333 97.6524 65.76C97.055 66.1867 96.655 66.7867 96.4524 67.56L97.5964 67.896C97.7617 67.32 98.047 66.8987 98.4524 66.632C98.863 66.3653 99.3644 66.232 99.9564 66.232C100.778 66.232 101.364 66.424 101.716 66.808C102.068 67.1867 102.25 67.7653 102.26 68.544C101.876 68.5973 101.452 68.6533 100.988 68.712C100.53 68.7707 100.068 68.8373 99.6044 68.912C99.1404 68.9867 98.7137 69.072 98.3244 69.168C97.679 69.3387 97.151 69.624 96.7404 70.024C96.3297 70.4187 96.1244 70.9707 96.1244 71.68C96.1244 72.1387 96.2337 72.5627 96.4524 72.952C96.671 73.3413 96.999 73.6533 97.4364 73.888C97.879 74.1227 98.4257 74.24 99.0764 74.24ZM99.2124 73.224C98.7484 73.224 98.375 73.1493 98.0924 73C97.815 72.8453 97.6124 72.6507 97.4844 72.416C97.3617 72.176 97.3004 71.9307 97.3004 71.68C97.3004 71.2107 97.4577 70.8587 97.7724 70.624C98.087 70.3893 98.4284 70.2187 98.7964 70.112C99.271 69.984 99.823 69.88 100.452 69.8C101.082 69.72 101.679 69.6453 102.244 69.576C102.244 69.7733 102.236 70 102.22 70.256C102.21 70.5067 102.18 70.7387 102.132 70.952C102.02 71.6027 101.711 72.144 101.204 72.576C100.703 73.008 100.039 73.224 99.2124 73.224ZM110.199 74V72.968C109.58 73.0693 109.06 73.0853 108.639 73.016C108.223 72.9467 107.919 72.7333 107.727 72.376C107.626 72.1893 107.57 71.976 107.559 71.736C107.554 71.4907 107.551 71.1867 107.551 70.824V66.368H110.199V65.36H107.551V62.96H106.383V65.36H104.535V66.368H106.383V70.872C106.383 71.2933 106.388 71.6693 106.399 72C106.415 72.3307 106.5 72.6533 106.655 72.968C106.847 73.352 107.127 73.6347 107.495 73.816C107.868 73.9973 108.29 74.0987 108.759 74.12C109.234 74.1413 109.714 74.1013 110.199 74ZM111.893 74H113.077V68.424C113.077 67.7467 113.261 67.2053 113.629 66.8C113.997 66.3893 114.48 66.184 115.077 66.184C115.675 66.184 116.155 66.384 116.517 66.784C116.885 67.1787 117.069 67.72 117.069 68.408L117.061 74H118.221L118.229 68.424C118.229 67.8853 118.328 67.4533 118.525 67.128C118.728 66.7973 118.984 66.5573 119.293 66.408C119.603 66.2587 119.92 66.184 120.245 66.184C120.816 66.184 121.285 66.376 121.653 66.76C122.027 67.1387 122.213 67.6613 122.213 68.328L122.205 74H123.381L123.389 68.104C123.389 67.192 123.128 66.4693 122.605 65.936C122.088 65.3973 121.392 65.128 120.517 65.128C119.941 65.128 119.424 65.2587 118.965 65.52C118.507 65.776 118.152 66.1307 117.901 66.584C117.667 66.1093 117.328 65.7493 116.885 65.504C116.448 65.2533 115.947 65.128 115.381 65.128C114.869 65.128 114.403 65.232 113.981 65.44C113.56 65.6427 113.216 65.92 112.949 66.272V65.36H111.893V74ZM128.768 74.216C129.386 74.216 129.944 74.0987 130.44 73.864C130.941 73.624 131.352 73.2693 131.672 72.8V74H132.728V65.36H131.552V69.968C131.552 70.944 131.333 71.7093 130.896 72.264C130.458 72.8187 129.824 73.096 128.992 73.096C128.389 73.096 127.904 72.952 127.536 72.664C127.168 72.3707 126.901 71.9733 126.736 71.472C126.57 70.9707 126.488 70.4027 126.488 69.768V65.36H125.304V70.112C125.304 70.5973 125.362 71.0827 125.48 71.568C125.602 72.0533 125.797 72.496 126.064 72.896C126.33 73.296 126.685 73.616 127.128 73.856C127.576 74.096 128.122 74.216 128.768 74.216ZM140.639 74.24C142.148 74.24 143.244 73.6827 143.927 72.568V74H144.975V68.632C144.975 68.312 144.959 67.9973 144.927 67.688C144.895 67.3787 144.826 67.0987 144.719 66.848C144.49 66.288 144.098 65.8613 143.543 65.568C142.994 65.2693 142.324 65.12 141.535 65.12C140.586 65.12 139.812 65.3333 139.215 65.76C138.618 66.1867 138.218 66.7867 138.015 67.56L139.159 67.896C139.324 67.32 139.61 66.8987 140.015 66.632C140.426 66.3653 140.927 66.232 141.519 66.232C142.34 66.232 142.927 66.424 143.279 66.808C143.631 67.1867 143.812 67.7653 143.823 68.544C143.439 68.5973 143.015 68.6533 142.551 68.712C142.092 68.7707 141.631 68.8373 141.167 68.912C140.703 68.9867 140.276 69.072 139.887 69.168C139.242 69.3387 138.714 69.624 138.303 70.024C137.892 70.4187 137.687 70.9707 137.687 71.68C137.687 72.1387 137.796 72.5627 138.015 72.952C138.234 73.3413 138.562 73.6533 138.999 73.888C139.442 74.1227 139.988 74.24 140.639 74.24ZM140.775 73.224C140.311 73.224 139.938 73.1493 139.655 73C139.378 72.8453 139.175 72.6507 139.047 72.416C138.924 72.176 138.863 71.9307 138.863 71.68C138.863 71.2107 139.02 70.8587 139.335 70.624C139.65 70.3893 139.991 70.2187 140.359 70.112C140.834 69.984 141.386 69.88 142.015 69.8C142.644 69.72 143.242 69.6453 143.807 69.576C143.807 69.7733 143.799 70 143.783 70.256C143.772 70.5067 143.743 70.7387 143.695 70.952C143.583 71.6027 143.274 72.144 142.767 72.576C142.266 73.008 141.602 73.224 140.775 73.224ZM150.41 74.24C151.039 74.24 151.591 74.112 152.066 73.856C152.54 73.5947 152.932 73.24 153.242 72.792V74H154.298V62.48H153.114V66.376C152.799 65.9813 152.41 65.6747 151.946 65.456C151.487 65.232 150.959 65.12 150.362 65.12C149.572 65.12 148.895 65.32 148.33 65.72C147.764 66.12 147.33 66.664 147.026 67.352C146.727 68.04 146.578 68.8133 146.578 69.672C146.578 70.536 146.727 71.312 147.026 72C147.33 72.688 147.767 73.2347 148.338 73.64C148.914 74.04 149.604 74.24 150.41 74.24ZM150.53 73.144C149.932 73.144 149.431 72.992 149.026 72.688C148.626 72.3787 148.324 71.9627 148.122 71.44C147.924 70.9173 147.826 70.328 147.826 69.672C147.826 69.0213 147.924 68.4347 148.122 67.912C148.319 67.3893 148.618 66.976 149.018 66.672C149.423 66.368 149.935 66.216 150.554 66.216C151.455 66.216 152.127 66.5387 152.57 67.184C153.018 67.824 153.242 68.6533 153.242 69.672C153.242 70.3387 153.143 70.9333 152.946 71.456C152.748 71.9787 152.45 72.392 152.05 72.696C151.65 72.9947 151.143 73.144 150.53 73.144ZM159.014 74.24C160.523 74.24 161.619 73.6827 162.302 72.568V74H163.35V68.632C163.35 68.312 163.334 67.9973 163.302 67.688C163.27 67.3787 163.201 67.0987 163.094 66.848C162.865 66.288 162.473 65.8613 161.918 65.568C161.369 65.2693 160.699 65.12 159.91 65.12C158.961 65.12 158.187 65.3333 157.59 65.76C156.993 66.1867 156.593 66.7867 156.39 67.56L157.534 67.896C157.699 67.32 157.985 66.8987 158.39 66.632C158.801 66.3653 159.302 66.232 159.894 66.232C160.715 66.232 161.302 66.424 161.654 66.808C162.006 67.1867 162.187 67.7653 162.198 68.544C161.814 68.5973 161.39 68.6533 160.926 68.712C160.467 68.7707 160.006 68.8373 159.542 68.912C159.078 68.9867 158.651 69.072 158.262 69.168C157.617 69.3387 157.089 69.624 156.678 70.024C156.267 70.4187 156.062 70.9707 156.062 71.68C156.062 72.1387 156.171 72.5627 156.39 72.952C156.609 73.3413 156.937 73.6533 157.374 73.888C157.817 74.1227 158.363 74.24 159.014 74.24ZM159.15 73.224C158.686 73.224 158.313 73.1493 158.03 73C157.753 72.8453 157.55 72.6507 157.422 72.416C157.299 72.176 157.238 71.9307 157.238 71.68C157.238 71.2107 157.395 70.8587 157.71 70.624C158.025 70.3893 158.366 70.2187 158.734 70.112C159.209 69.984 159.761 69.88 160.39 69.8C161.019 69.72 161.617 69.6453 162.182 69.576C162.182 69.7733 162.174 70 162.158 70.256C162.147 70.5067 162.118 70.7387 162.07 70.952C161.958 71.6027 161.649 72.144 161.142 72.576C160.641 73.008 159.977 73.224 159.15 73.224ZM165.593 74H166.769V62.24H165.593V74ZM171.639 74.24C173.148 74.24 174.244 73.6827 174.927 72.568V74H175.975V68.632C175.975 68.312 175.959 67.9973 175.927 67.688C175.895 67.3787 175.826 67.0987 175.719 66.848C175.49 66.288 175.098 65.8613 174.543 65.568C173.994 65.2693 173.324 65.12 172.535 65.12C171.586 65.12 170.812 65.3333 170.215 65.76C169.618 66.1867 169.218 66.7867 169.015 67.56L170.159 67.896C170.324 67.32 170.61 66.8987 171.015 66.632C171.426 66.3653 171.927 66.232 172.519 66.232C173.34 66.232 173.927 66.424 174.279 66.808C174.631 67.1867 174.812 67.7653 174.823 68.544C174.439 68.5973 174.015 68.6533 173.551 68.712C173.092 68.7707 172.631 68.8373 172.167 68.912C171.703 68.9867 171.276 69.072 170.887 69.168C170.242 69.3387 169.714 69.624 169.303 70.024C168.892 70.4187 168.687 70.9707 168.687 71.68C168.687 72.1387 168.796 72.5627 169.015 72.952C169.234 73.3413 169.562 73.6533 169.999 73.888C170.442 74.1227 170.988 74.24 171.639 74.24ZM171.775 73.224C171.311 73.224 170.938 73.1493 170.655 73C170.378 72.8453 170.175 72.6507 170.047 72.416C169.924 72.176 169.863 71.9307 169.863 71.68C169.863 71.2107 170.02 70.8587 170.335 70.624C170.65 70.3893 170.991 70.2187 171.359 70.112C171.834 69.984 172.386 69.88 173.015 69.8C173.644 69.72 174.242 69.6453 174.807 69.576C174.807 69.7733 174.799 70 174.783 70.256C174.772 70.5067 174.743 70.7387 174.695 70.952C174.583 71.6027 174.274 72.144 173.767 72.576C173.266 73.008 172.602 73.224 171.775 73.224ZM178.05 74H179.234V69.392C179.234 68.416 179.452 67.6507 179.89 67.096C180.327 66.5413 180.962 66.264 181.794 66.264C182.396 66.264 182.882 66.4107 183.25 66.704C183.618 66.992 183.884 67.3867 184.05 67.888C184.215 68.3893 184.298 68.9573 184.298 69.592V74H185.482V69.248C185.482 68.7627 185.42 68.2773 185.298 67.792C185.18 67.3067 184.988 66.864 184.722 66.464C184.455 66.064 184.1 65.744 183.658 65.504C183.215 65.264 182.668 65.144 182.018 65.144C181.399 65.144 180.839 65.264 180.338 65.504C179.842 65.7387 179.434 66.0907 179.114 66.56V62.48H178.05V74Z" fill="#373737"/>
<path d="M25.68 46H27.444V38.2H36.996V46H38.748V28.72H36.996V36.508H27.444V28.72H25.68V46ZM47.5937 46.36C48.8497 46.36 49.9737 46.052 50.9657 45.436C51.9657 44.82 52.7217 43.944 53.2337 42.808L51.5897 42.172C50.7657 43.836 49.4097 44.668 47.5217 44.668C46.2257 44.668 45.2097 44.264 44.4737 43.456C43.7457 42.648 43.3457 41.5 43.2737 40.012H53.4857C53.5497 37.724 53.0497 35.932 51.9857 34.636C50.9297 33.332 49.4417 32.68 47.5217 32.68C46.2737 32.68 45.1897 32.96 44.2697 33.52C43.3577 34.08 42.6497 34.876 42.1457 35.908C41.6417 36.94 41.3897 38.164 41.3897 39.58C41.3897 40.948 41.6417 42.14 42.1457 43.156C42.6577 44.172 43.3777 44.96 44.3057 45.52C45.2417 46.08 46.3377 46.36 47.5937 46.36ZM47.5697 34.3C50.0097 34.3 51.3657 35.712 51.6377 38.536H43.3097C43.4457 37.168 43.8777 36.12 44.6057 35.392C45.3337 34.664 46.3217 34.3 47.5697 34.3ZM56.3888 30.58H58.1528V28.6H56.3888V30.58ZM56.3888 46H58.1528V33.04H56.3888V46ZM61.5103 48.508C62.1343 48.628 62.6303 48.504 62.9983 48.136C63.3743 47.768 63.5623 47.216 63.5623 46.48V43.468H61.5103V46H62.6023C62.6263 46.448 62.5863 46.84 62.4823 47.176C62.3783 47.512 62.0903 47.664 61.6183 47.632L61.5103 48.508ZM72.93 46H75.858V33.82L83.874 46H86.802V28.72H83.874V40.9L75.858 28.72H72.93V46ZM93.7806 46.36C94.8126 46.36 95.6886 46.192 96.4086 45.856C97.1366 45.512 97.7766 44.98 98.3286 44.26V46H100.861V38.044C100.861 37.484 100.837 36.968 100.789 36.496C100.741 36.016 100.601 35.548 100.369 35.092C99.9446 34.236 99.2926 33.62 98.4126 33.244C97.5406 32.868 96.5286 32.68 95.3766 32.68C93.8566 32.68 92.6446 33.012 91.7406 33.676C90.8366 34.34 90.2246 35.22 89.9046 36.316L92.5446 37.144C92.7606 36.48 93.1406 36.012 93.6846 35.74C94.2286 35.468 94.7926 35.332 95.3766 35.332C96.2566 35.332 96.9046 35.512 97.3206 35.872C97.7366 36.224 97.9726 36.772 98.0286 37.516C96.8926 37.684 95.8366 37.848 94.8606 38.008C93.8926 38.16 93.0686 38.348 92.3886 38.572C91.3646 38.924 90.6166 39.424 90.1446 40.072C89.6726 40.712 89.4366 41.504 89.4366 42.448C89.4366 43.16 89.6006 43.812 89.9286 44.404C90.2646 44.996 90.7566 45.472 91.4046 45.832C92.0526 46.184 92.8446 46.36 93.7806 46.36ZM94.3566 44.056C93.6766 44.056 93.1566 43.9 92.7966 43.588C92.4446 43.276 92.2686 42.884 92.2686 42.412C92.2686 41.988 92.4046 41.644 92.6766 41.38C92.9566 41.116 93.3446 40.892 93.8406 40.708C94.2966 40.556 94.8446 40.424 95.4846 40.312C96.1246 40.192 96.9606 40.052 97.9926 39.892C97.9846 40.196 97.9646 40.536 97.9326 40.912C97.9006 41.28 97.8246 41.612 97.7046 41.908C97.6086 42.204 97.4206 42.52 97.1406 42.856C96.8686 43.192 96.5006 43.476 96.0366 43.708C95.5726 43.94 95.0126 44.056 94.3566 44.056ZM111.581 46V43.576C110.773 43.696 110.053 43.728 109.421 43.672C108.789 43.616 108.329 43.348 108.041 42.868C107.889 42.62 107.805 42.3 107.789 41.908C107.781 41.508 107.777 41.052 107.777 40.54V35.308H111.581V33.04H107.777V29.44H104.897V33.04H102.545V35.308H104.897V40.708C104.897 41.452 104.905 42.116 104.921 42.7C104.937 43.276 105.093 43.844 105.389 44.404C105.725 45.02 106.217 45.472 106.865 45.76C107.513 46.04 108.245 46.188 109.061 46.204C109.885 46.228 110.725 46.16 111.581 46ZM117.992 46.36C119.024 46.36 119.9 46.192 120.62 45.856C121.348 45.512 121.988 44.98 122.54 44.26V46H125.072V38.044C125.072 37.484 125.048 36.968 125 36.496C124.952 36.016 124.812 35.548 124.58 35.092C124.156 34.236 123.504 33.62 122.624 33.244C121.752 32.868 120.74 32.68 119.588 32.68C118.068 32.68 116.856 33.012 115.952 33.676C115.048 34.34 114.436 35.22 114.116 36.316L116.756 37.144C116.972 36.48 117.352 36.012 117.896 35.74C118.44 35.468 119.004 35.332 119.588 35.332C120.468 35.332 121.116 35.512 121.532 35.872C121.948 36.224 122.184 36.772 122.24 37.516C121.104 37.684 120.048 37.848 119.072 38.008C118.104 38.16 117.28 38.348 116.6 38.572C115.576 38.924 114.828 39.424 114.356 40.072C113.884 40.712 113.648 41.504 113.648 42.448C113.648 43.16 113.812 43.812 114.14 44.404C114.476 44.996 114.968 45.472 115.616 45.832C116.264 46.184 117.056 46.36 117.992 46.36ZM118.568 44.056C117.888 44.056 117.368 43.9 117.008 43.588C116.656 43.276 116.48 42.884 116.48 42.412C116.48 41.988 116.616 41.644 116.888 41.38C117.168 41.116 117.556 40.892 118.052 40.708C118.508 40.556 119.056 40.424 119.696 40.312C120.336 40.192 121.172 40.052 122.204 39.892C122.196 40.196 122.176 40.536 122.144 40.912C122.112 41.28 122.036 41.612 121.916 41.908C121.82 42.204 121.632 42.52 121.352 42.856C121.08 43.192 120.712 43.476 120.248 43.708C119.784 43.94 119.224 44.056 118.568 44.056ZM128.436 46H131.328V28.36H128.436V46ZM135.162 31.072H138.054V28.42H135.162V31.072ZM135.162 46H138.054V33.04H135.162V46ZM147.541 46.36C148.789 46.36 149.929 46.04 150.961 45.4C152.001 44.752 152.769 43.84 153.265 42.664L150.409 41.8C149.833 43.032 148.821 43.648 147.373 43.648C146.389 43.648 145.613 43.364 145.045 42.796C144.477 42.22 144.137 41.396 144.025 40.324H153.409C153.521 38.764 153.349 37.412 152.893 36.268C152.437 35.124 151.737 34.24 150.793 33.616C149.857 32.992 148.717 32.68 147.373 32.68C146.101 32.68 144.981 32.968 144.013 33.544C143.045 34.112 142.289 34.92 141.745 35.968C141.201 37.016 140.929 38.248 140.929 39.664C140.929 40.976 141.205 42.136 141.757 43.144C142.317 44.152 143.093 44.94 144.085 45.508C145.077 46.076 146.229 46.36 147.541 46.36ZM147.493 35.212C148.389 35.212 149.077 35.448 149.557 35.92C150.045 36.384 150.353 37.124 150.481 38.14H144.097C144.441 36.188 145.573 35.212 147.493 35.212ZM161.131 46H171.655V43.288H164.023V28.72H161.131V46ZM173.928 31.072H176.82V28.42H173.928V31.072ZM173.928 46H176.82V33.04H173.928V46ZM186.306 46.36C187.554 46.36 188.694 46.04 189.726 45.4C190.766 44.752 191.534 43.84 192.03 42.664L189.174 41.8C188.598 43.032 187.586 43.648 186.138 43.648C185.154 43.648 184.378 43.364 183.81 42.796C183.242 42.22 182.902 41.396 182.79 40.324H192.174C192.286 38.764 192.114 37.412 191.658 36.268C191.202 35.124 190.502 34.24 189.558 33.616C188.622 32.992 187.482 32.68 186.138 32.68C184.866 32.68 183.746 32.968 182.778 33.544C181.81 34.112 181.054 34.92 180.51 35.968C179.966 37.016 179.694 38.248 179.694 39.664C179.694 40.976 179.97 42.136 180.522 43.144C181.082 44.152 181.858 44.94 182.85 45.508C183.842 46.076 184.994 46.36 186.306 46.36ZM186.258 35.212C187.154 35.212 187.842 35.448 188.322 35.92C188.81 36.384 189.118 37.124 189.246 38.14H182.862C183.206 36.188 184.338 35.212 186.258 35.212Z" fill="#373737"/>
<rect x="24" y="97" width="182" height="56" rx="4" fill="#FFF7F1"/>
<path d="M84.44 133H86.82L89.76 122.76L92.7 133H95.08L99.28 118.6H96.75L93.89 129L91.02 118.6L88.49 118.62L85.63 129L82.76 118.6H80.23L84.44 133ZM104.63 133.3C105.67 133.3 106.62 133.033 107.48 132.5C108.347 131.96 108.987 131.2 109.4 130.22L107.02 129.5C106.54 130.527 105.697 131.04 104.49 131.04C103.67 131.04 103.024 130.803 102.55 130.33C102.077 129.85 101.794 129.163 101.7 128.27H109.52C109.614 126.97 109.47 125.843 109.09 124.89C108.71 123.937 108.127 123.2 107.34 122.68C106.56 122.16 105.61 121.9 104.49 121.9C103.43 121.9 102.497 122.14 101.69 122.62C100.884 123.093 100.254 123.767 99.8003 124.64C99.347 125.513 99.1203 126.54 99.1203 127.72C99.1203 128.813 99.3503 129.78 99.8103 130.62C100.277 131.46 100.924 132.117 101.75 132.59C102.577 133.063 103.537 133.3 104.63 133.3ZM104.59 124.01C105.337 124.01 105.91 124.207 106.31 124.6C106.717 124.987 106.974 125.603 107.08 126.45H101.76C102.047 124.823 102.99 124.01 104.59 124.01ZM111.732 133H113.862V132.2C114.248 132.547 114.698 132.817 115.212 133.01C115.725 133.203 116.302 133.3 116.942 133.3C117.942 133.3 118.808 133.05 119.542 132.55C120.282 132.05 120.855 131.37 121.262 130.51C121.668 129.65 121.872 128.68 121.872 127.6C121.872 126.507 121.665 125.53 121.252 124.67C120.845 123.81 120.265 123.133 119.512 122.64C118.758 122.147 117.872 121.9 116.852 121.9C116.312 121.9 115.818 121.973 115.372 122.12C114.925 122.26 114.522 122.463 114.162 122.73V118.6H111.732V133ZM116.572 131.14C115.605 131.14 114.912 130.813 114.492 130.16C114.072 129.5 113.862 128.647 113.862 127.6C113.862 126.547 114.068 125.693 114.482 125.04C114.902 124.387 115.572 124.06 116.492 124.06C117.138 124.06 117.668 124.22 118.082 124.54C118.502 124.853 118.812 125.28 119.012 125.82C119.218 126.353 119.322 126.947 119.322 127.6C119.322 128.26 119.222 128.857 119.022 129.39C118.828 129.923 118.528 130.35 118.122 130.67C117.715 130.983 117.198 131.14 116.572 131.14ZM128.08 133H132.67C132.783 133 133.02 132.997 133.38 132.99C133.746 132.983 134.093 132.96 134.42 132.92C135.566 132.773 136.533 132.37 137.32 131.71C138.106 131.043 138.703 130.197 139.11 129.17C139.516 128.143 139.72 127.02 139.72 125.8C139.72 124.58 139.516 123.457 139.11 122.43C138.703 121.403 138.106 120.557 137.32 119.89C136.533 119.223 135.566 118.82 134.42 118.68C134.086 118.64 133.74 118.617 133.38 118.61C133.026 118.603 132.79 118.6 132.67 118.6H128.08V133ZM130.53 130.73V120.87H132.67C132.87 120.87 133.123 120.877 133.43 120.89C133.736 120.897 134.013 120.927 134.26 120.98C134.926 121.107 135.473 121.403 135.9 121.87C136.326 122.337 136.643 122.913 136.85 123.6C137.063 124.28 137.17 125.013 137.17 125.8C137.17 126.553 137.07 127.273 136.87 127.96C136.67 128.647 136.353 129.23 135.92 129.71C135.493 130.183 134.94 130.487 134.26 130.62C134.013 130.667 133.736 130.697 133.43 130.71C133.123 130.723 132.87 130.73 132.67 130.73H130.53ZM146.994 133.3C148.034 133.3 148.984 133.033 149.844 132.5C150.71 131.96 151.35 131.2 151.764 130.22L149.384 129.5C148.904 130.527 148.06 131.04 146.854 131.04C146.034 131.04 145.387 130.803 144.914 130.33C144.44 129.85 144.157 129.163 144.064 128.27H151.884C151.977 126.97 151.834 125.843 151.454 124.89C151.074 123.937 150.49 123.2 149.704 122.68C148.924 122.16 147.974 121.9 146.854 121.9C145.794 121.9 144.86 122.14 144.054 122.62C143.247 123.093 142.617 123.767 142.164 124.64C141.71 125.513 141.484 126.54 141.484 127.72C141.484 128.813 141.714 129.78 142.174 130.62C142.64 131.46 143.287 132.117 144.114 132.59C144.94 133.063 145.9 133.3 146.994 133.3ZM146.954 124.01C147.7 124.01 148.274 124.207 148.674 124.6C149.08 124.987 149.337 125.603 149.444 126.45H144.124C144.41 124.823 145.354 124.01 146.954 124.01ZM158.285 133.3C159.678 133.3 160.768 132.99 161.555 132.37C162.348 131.75 162.745 130.897 162.745 129.81C162.745 128.97 162.478 128.31 161.945 127.83C161.418 127.35 160.508 126.943 159.215 126.61C158.375 126.397 157.742 126.217 157.315 126.07C156.895 125.923 156.615 125.777 156.475 125.63C156.335 125.483 156.265 125.307 156.265 125.1C156.265 124.74 156.438 124.46 156.785 124.26C157.132 124.053 157.588 123.963 158.155 123.99C158.742 124.023 159.212 124.173 159.565 124.44C159.925 124.707 160.138 125.07 160.205 125.53L162.665 125.09C162.532 124.117 162.055 123.343 161.235 122.77C160.415 122.19 159.375 121.9 158.115 121.9C156.828 121.9 155.798 122.2 155.025 122.8C154.252 123.4 153.865 124.207 153.865 125.22C153.865 126.027 154.135 126.663 154.675 127.13C155.222 127.597 156.172 128.007 157.525 128.36C158.338 128.573 158.938 128.753 159.325 128.9C159.718 129.04 159.975 129.183 160.095 129.33C160.215 129.477 160.275 129.673 160.275 129.92C160.275 130.32 160.115 130.637 159.795 130.87C159.475 131.097 159.028 131.21 158.455 131.21C157.795 131.21 157.245 131.057 156.805 130.75C156.372 130.443 156.095 130.023 155.975 129.49L153.515 129.87C153.695 130.957 154.202 131.8 155.035 132.4C155.868 133 156.952 133.3 158.285 133.3ZM165.135 120.56H167.545V118.35H165.135V120.56ZM165.135 133H167.545V122.2H165.135V133ZM174.871 133.3C175.431 133.3 175.941 133.223 176.401 133.07C176.867 132.923 177.284 132.717 177.651 132.45V133.48C177.664 134.247 177.427 134.827 176.941 135.22C176.461 135.613 175.844 135.81 175.091 135.81C174.664 135.81 174.261 135.713 173.881 135.52C173.501 135.327 173.211 135.037 173.011 134.65L170.791 135.75C171.211 136.483 171.804 137.057 172.571 137.47C173.344 137.89 174.181 138.1 175.081 138.1C176.301 138.1 177.347 137.85 178.221 137.35C179.101 136.857 179.664 136.087 179.911 135.04C179.964 134.8 180.001 134.557 180.021 134.31C180.047 134.063 180.061 133.8 180.061 133.52V122.2H177.951V122.98C177.571 122.633 177.131 122.367 176.631 122.18C176.131 121.993 175.574 121.9 174.961 121.9C173.941 121.9 173.054 122.147 172.301 122.64C171.554 123.133 170.974 123.81 170.561 124.67C170.147 125.53 169.941 126.507 169.941 127.6C169.941 128.68 170.144 129.65 170.551 130.51C170.957 131.37 171.531 132.05 172.271 132.55C173.011 133.05 173.877 133.3 174.871 133.3ZM175.241 131.14C174.614 131.14 174.097 130.983 173.691 130.67C173.284 130.35 172.981 129.923 172.781 129.39C172.587 128.857 172.491 128.26 172.491 127.6C172.491 126.947 172.591 126.353 172.791 125.82C172.997 125.28 173.307 124.853 173.721 124.54C174.141 124.22 174.674 124.06 175.321 124.06C176.241 124.06 176.907 124.387 177.321 125.04C177.741 125.693 177.951 126.547 177.951 127.6C177.951 128.647 177.741 129.5 177.321 130.16C176.907 130.813 176.214 131.14 175.241 131.14ZM182.845 133H185.285V127.45C185.285 126.577 185.408 125.903 185.655 125.43C185.908 124.95 186.228 124.62 186.615 124.44C187.008 124.253 187.408 124.16 187.815 124.16C188.388 124.16 188.845 124.287 189.185 124.54C189.525 124.787 189.775 125.103 189.935 125.49C190.102 125.87 190.208 126.267 190.255 126.68C190.308 127.093 190.335 127.467 190.335 127.8V133H192.775V126.97C192.775 126.717 192.752 126.38 192.705 125.96C192.665 125.54 192.572 125.097 192.425 124.63C192.278 124.163 192.052 123.723 191.745 123.31C191.438 122.89 191.022 122.55 190.495 122.29C189.975 122.023 189.318 121.89 188.525 121.89C187.745 121.89 187.058 122.027 186.465 122.3C185.878 122.567 185.388 122.933 184.995 123.4V122.2H182.845V133Z" fill="#373737"/>
<rect x="36" y="109" width="32" height="32" rx="4" fill="#FFE5D2"/>
<path d="M59 116H45C43.8954 116 43 116.895 43 118V132C43 133.105 43.8954 134 45 134H59C60.1046 134 61 133.105 61 132V118C61 116.895 60.1046 116 59 116Z" stroke="#FF7A1A" stroke-width="2" stroke-linecap="round" stroke-linejoin="round"/>
<path d="M43 122H61" stroke="#FF7A1A" stroke-width="2" stroke-linecap="round" stroke-linejoin="round"/>
<path d="M49 134V122" stroke="#FF7A1A" stroke-width="2" stroke-linecap="round" stroke-linejoin="round"/>
<defs>
<filter id="filter0_f" x="0" y="59" width="231" height="148" filterUnits="userSpaceOnUse" color-interpolation-filters="sRGB">
<feFlood flood-opacity="0" result="BackgroundImageFix"/>
<feBlend mode="normal" in="SourceGraphic" in2="BackgroundImageFix" result="shape"/>
<feGaussianBlur stdDeviation="12" result="effect1_foregroundBlur"/>
</filter>
</defs>
</svg>
