<svg width="212" height="107" viewBox="0 0 212 107" fill="none" xmlns="http://www.w3.org/2000/svg">
<g filter="url(#filter0_f)">
<rect x="24" y="24" width="164" height="59" rx="17" fill="black" fill-opacity="0.08"/>
</g>
<g filter="url(#filter1_b)">
<rect x="8" width="196" height="73" rx="4" fill="white"/>
</g>
<rect x="19" y="13" width="48" height="48" rx="4" fill="#FFF0F8"/>
<path d="M43.5 20.4166L26.4166 28.9583L43.5 37.5L60.5833 28.9583L43.5 20.4166Z" stroke="#FF75BB" stroke-width="3" stroke-linecap="round" stroke-linejoin="round"/>
<path d="M26.4166 46.0416L43.5 54.5833L60.5833 46.0416" stroke="#FF75BB" stroke-width="3" stroke-linecap="round" stroke-linejoin="round"/>
<path d="M26.4166 37.5L43.5 46.0417L60.5833 37.5" stroke="#FF75BB" stroke-width="3" stroke-linecap="round" stroke-linejoin="round"/>
<path d="M79.26 56H80.529V45.992L85.137 56H85.992L90.609 45.992V55.991H91.869V43.04H90.636L85.569 53.939L80.475 43.04H79.26V56ZM98.4538 56.27C99.4138 56.27 100.236 56.054 100.92 55.622C101.61 55.19 102.138 54.59 102.504 53.822C102.876 53.048 103.062 52.151 103.062 51.131C103.062 50.129 102.879 49.244 102.513 48.476C102.153 47.702 101.628 47.099 100.938 46.667C100.254 46.229 99.4258 46.01 98.4538 46.01C97.5058 46.01 96.6868 46.226 95.9968 46.658C95.3128 47.084 94.7848 47.681 94.4128 48.449C94.0408 49.217 93.8548 50.111 93.8548 51.131C93.8548 52.133 94.0348 53.021 94.3948 53.795C94.7608 54.569 95.2858 55.175 95.9698 55.613C96.6598 56.051 97.4878 56.27 98.4538 56.27ZM98.4538 55.001C97.4038 55.001 96.6088 54.65 96.0688 53.948C95.5288 53.24 95.2588 52.301 95.2588 51.131C95.2588 49.997 95.5198 49.073 96.0418 48.359C96.5638 47.639 97.3678 47.279 98.4538 47.279C99.5278 47.279 100.329 47.63 100.857 48.332C101.391 49.028 101.658 49.961 101.658 51.131C101.658 52.277 101.394 53.21 100.866 53.93C100.338 54.644 99.5338 55.001 98.4538 55.001ZM108.818 56.27C109.526 56.27 110.147 56.126 110.681 55.838C111.215 55.544 111.656 55.145 112.004 54.641V56H113.192V43.04H111.86V47.423C111.506 46.979 111.068 46.634 110.546 46.388C110.03 46.136 109.436 46.01 108.764 46.01C107.876 46.01 107.114 46.235 106.478 46.685C105.842 47.135 105.353 47.747 105.011 48.521C104.675 49.295 104.507 50.165 104.507 51.131C104.507 52.103 104.675 52.976 105.011 53.75C105.353 54.524 105.845 55.139 106.487 55.595C107.135 56.045 107.912 56.27 108.818 56.27ZM108.953 55.037C108.281 55.037 107.717 54.866 107.261 54.524C106.811 54.176 106.472 53.708 106.244 53.12C106.022 52.532 105.911 51.869 105.911 51.131C105.911 50.399 106.022 49.739 106.244 49.151C106.466 48.563 106.802 48.098 107.252 47.756C107.708 47.414 108.284 47.243 108.98 47.243C109.994 47.243 110.75 47.606 111.248 48.332C111.752 49.052 112.004 49.985 112.004 51.131C112.004 51.881 111.893 52.55 111.671 53.138C111.449 53.726 111.113 54.191 110.663 54.533C110.213 54.869 109.643 55.037 108.953 55.037ZM119.434 56.243C120.13 56.243 120.757 56.111 121.315 55.847C121.879 55.577 122.341 55.178 122.701 54.65V56H123.889V46.28H122.566V51.464C122.566 52.562 122.32 53.423 121.828 54.047C121.336 54.671 120.622 54.983 119.686 54.983C119.008 54.983 118.462 54.821 118.048 54.497C117.634 54.167 117.334 53.72 117.148 53.156C116.962 52.592 116.869 51.953 116.869 51.239V46.28H115.537V51.626C115.537 52.172 115.603 52.718 115.735 53.264C115.873 53.81 116.092 54.308 116.392 54.758C116.692 55.208 117.091 55.568 117.589 55.838C118.093 56.108 118.708 56.243 119.434 56.243ZM126.585 56H127.908V42.77H126.585V56ZM139.402 56.27C140.674 56.27 141.73 56.006 142.57 55.478C143.416 54.944 144.049 54.215 144.469 53.291C144.889 52.367 145.099 51.323 145.099 50.159C145.099 50.093 145.096 49.985 145.09 49.835C145.084 49.679 145.075 49.532 145.063 49.394H140.689V50.528H143.677C143.611 51.908 143.239 53 142.561 53.804C141.883 54.608 140.848 55.007 139.456 55.001C138.442 54.995 137.593 54.761 136.909 54.299C136.231 53.837 135.724 53.195 135.388 52.373C135.052 51.551 134.887 50.6 134.893 49.52C134.905 48.44 135.079 47.489 135.415 46.667C135.751 45.845 136.255 45.203 136.927 44.741C137.599 44.279 138.442 44.051 139.456 44.057C140.41 44.057 141.208 44.294 141.85 44.768C142.498 45.242 142.966 45.875 143.254 46.667L144.586 46.343C144.244 45.257 143.638 44.393 142.768 43.751C141.904 43.103 140.782 42.779 139.402 42.779C138.166 42.779 137.107 43.058 136.225 43.616C135.343 44.174 134.665 44.957 134.191 45.965C133.723 46.973 133.489 48.158 133.489 49.52C133.489 50.888 133.726 52.079 134.2 53.093C134.68 54.101 135.361 54.884 136.243 55.442C137.125 55.994 138.178 56.27 139.402 56.27ZM146.901 56H148.224V51.149C148.224 50.567 148.29 49.988 148.422 49.412C148.56 48.83 148.872 48.347 149.358 47.963C149.712 47.675 150.096 47.51 150.51 47.468C150.93 47.42 151.32 47.438 151.68 47.522V46.28C151.254 46.172 150.771 46.169 150.231 46.271C149.691 46.367 149.229 46.583 148.845 46.919C148.557 47.135 148.305 47.435 148.089 47.819V46.28H146.901V56ZM155.816 56.27C157.514 56.27 158.747 55.643 159.515 54.389V56H160.694V49.961C160.694 49.601 160.676 49.247 160.64 48.899C160.604 48.551 160.526 48.236 160.406 47.954C160.148 47.324 159.707 46.844 159.083 46.514C158.465 46.178 157.712 46.01 156.824 46.01C155.756 46.01 154.886 46.25 154.214 46.73C153.542 47.21 153.092 47.885 152.864 48.755L154.151 49.133C154.337 48.485 154.658 48.011 155.114 47.711C155.576 47.411 156.14 47.261 156.806 47.261C157.73 47.261 158.39 47.477 158.786 47.909C159.182 48.335 159.386 48.986 159.398 49.862C158.966 49.922 158.489 49.985 157.967 50.051C157.451 50.117 156.932 50.192 156.41 50.276C155.888 50.36 155.408 50.456 154.97 50.564C154.244 50.756 153.65 51.077 153.188 51.527C152.726 51.971 152.495 52.592 152.495 53.39C152.495 53.906 152.618 54.383 152.864 54.821C153.11 55.259 153.479 55.61 153.971 55.874C154.469 56.138 155.084 56.27 155.816 56.27ZM155.969 55.127C155.447 55.127 155.027 55.043 154.709 54.875C154.397 54.701 154.169 54.482 154.025 54.218C153.887 53.948 153.818 53.672 153.818 53.39C153.818 52.862 153.995 52.466 154.349 52.202C154.703 51.938 155.087 51.746 155.501 51.626C156.035 51.482 156.656 51.365 157.364 51.275C158.072 51.185 158.744 51.101 159.38 51.023C159.38 51.245 159.371 51.5 159.353 51.788C159.341 52.07 159.308 52.331 159.254 52.571C159.128 53.303 158.78 53.912 158.21 54.398C157.646 54.884 156.899 55.127 155.969 55.127ZM168.329 56V54.839C167.633 54.953 167.048 54.971 166.574 54.893C166.106 54.815 165.764 54.575 165.548 54.173C165.434 53.963 165.371 53.723 165.359 53.453C165.353 53.177 165.35 52.835 165.35 52.427V47.414H168.329V46.28H165.35V43.58H164.036V46.28H161.957V47.414H164.036V52.481C164.036 52.955 164.042 53.378 164.054 53.75C164.072 54.122 164.168 54.485 164.342 54.839C164.558 55.271 164.873 55.589 165.287 55.793C165.707 55.997 166.181 56.111 166.709 56.135C167.243 56.159 167.783 56.114 168.329 56ZM170.424 44.435H171.747V42.95H170.424V44.435ZM170.424 56H171.747V46.28H170.424V56ZM178.073 56.261C179.267 56.261 180.203 56 180.881 55.478C181.565 54.95 181.907 54.227 181.907 53.309C181.907 52.805 181.799 52.382 181.583 52.04C181.373 51.698 181.01 51.401 180.494 51.149C179.984 50.897 179.282 50.657 178.388 50.429C177.626 50.237 177.038 50.06 176.624 49.898C176.216 49.736 175.934 49.565 175.778 49.385C175.622 49.199 175.544 48.977 175.544 48.719C175.544 48.257 175.76 47.888 176.192 47.612C176.624 47.336 177.185 47.204 177.875 47.216C178.607 47.228 179.21 47.402 179.684 47.738C180.158 48.068 180.443 48.518 180.539 49.088L181.889 48.845C181.823 48.281 181.613 47.786 181.259 47.36C180.905 46.934 180.437 46.604 179.855 46.37C179.279 46.13 178.625 46.01 177.893 46.01C177.161 46.01 176.516 46.127 175.958 46.361C175.406 46.589 174.974 46.913 174.662 47.333C174.356 47.747 174.203 48.23 174.203 48.782C174.203 49.232 174.305 49.616 174.509 49.934C174.719 50.246 175.076 50.525 175.58 50.771C176.084 51.011 176.774 51.251 177.65 51.491C178.472 51.713 179.087 51.905 179.495 52.067C179.909 52.229 180.185 52.406 180.323 52.598C180.461 52.784 180.53 53.027 180.53 53.327C180.53 53.855 180.317 54.275 179.891 54.587C179.465 54.899 178.883 55.055 178.145 55.055C177.389 55.055 176.753 54.893 176.237 54.569C175.721 54.239 175.394 53.798 175.256 53.246L173.906 53.471C174.074 54.347 174.524 55.031 175.256 55.523C175.994 56.015 176.933 56.261 178.073 56.261Z" fill="#373737"/>
<path d="M85.26 19.384C84.172 19.384 83.176 19.644 82.272 20.164C81.368 20.676 80.64 21.372 80.088 22.252C79.544 23.124 79.272 24.1 79.272 25.18C79.272 26.268 79.508 27.24 79.98 28.096C80.46 28.944 81.116 29.616 81.948 30.112C82.788 30.6 83.752 30.844 84.84 30.844C86.144 30.844 87.292 30.412 88.284 29.548V31.3C88.284 31.884 88.144 32.432 87.864 32.944C87.584 33.456 87.192 33.872 86.688 34.192C86.192 34.504 85.608 34.66 84.936 34.66C84.464 34.66 84.008 34.556 83.568 34.348C83.128 34.14 82.756 33.856 82.452 33.496L80.364 35.524C80.972 36.164 81.664 36.632 82.44 36.928C83.224 37.216 84.056 37.36 84.936 37.36C86.192 37.36 87.292 37.096 88.236 36.568C89.18 36.032 89.916 35.284 90.444 34.324C90.972 33.356 91.236 32.216 91.236 30.904V25.648C91.236 24.424 90.972 23.34 90.444 22.396C89.916 21.452 89.2 20.716 88.296 20.188C87.4 19.652 86.388 19.384 85.26 19.384ZM85.26 22.156C85.82 22.156 86.328 22.296 86.784 22.576C87.24 22.848 87.604 23.216 87.876 23.68C88.148 24.136 88.284 24.636 88.284 25.18C88.284 25.74 88.144 26.252 87.864 26.716C87.592 27.18 87.224 27.552 86.76 27.832C86.304 28.104 85.796 28.24 85.236 28.24C84.676 28.24 84.164 28.104 83.7 27.832C83.244 27.552 82.88 27.18 82.608 26.716C82.336 26.252 82.2 25.74 82.2 25.18C82.2 24.62 82.336 24.112 82.608 23.656C82.888 23.2 83.26 22.836 83.724 22.564C84.188 22.292 84.7 22.156 85.26 22.156ZM100.166 19.384C99.0783 19.384 98.0823 19.644 97.1783 20.164C96.2743 20.676 95.5463 21.372 94.9943 22.252C94.4503 23.124 94.1783 24.1 94.1783 25.18C94.1783 26.268 94.4143 27.24 94.8863 28.096C95.3663 28.944 96.0223 29.616 96.8543 30.112C97.6943 30.6 98.6583 30.844 99.7463 30.844C101.05 30.844 102.198 30.412 103.19 29.548V31.3C103.19 31.884 103.05 32.432 102.77 32.944C102.49 33.456 102.098 33.872 101.594 34.192C101.098 34.504 100.514 34.66 99.8423 34.66C99.3703 34.66 98.9143 34.556 98.4743 34.348C98.0343 34.14 97.6623 33.856 97.3583 33.496L95.2703 35.524C95.8783 36.164 96.5703 36.632 97.3463 36.928C98.1303 37.216 98.9623 37.36 99.8423 37.36C101.098 37.36 102.198 37.096 103.142 36.568C104.086 36.032 104.822 35.284 105.35 34.324C105.878 33.356 106.142 32.216 106.142 30.904V25.648C106.142 24.424 105.878 23.34 105.35 22.396C104.822 21.452 104.106 20.716 103.202 20.188C102.306 19.652 101.294 19.384 100.166 19.384ZM100.166 22.156C100.726 22.156 101.234 22.296 101.69 22.576C102.146 22.848 102.51 23.216 102.782 23.68C103.054 24.136 103.19 24.636 103.19 25.18C103.19 25.74 103.05 26.252 102.77 26.716C102.498 27.18 102.13 27.552 101.666 27.832C101.21 28.104 100.702 28.24 100.142 28.24C99.5823 28.24 99.0703 28.104 98.6063 27.832C98.1503 27.552 97.7863 27.18 97.5143 26.716C97.2423 26.252 97.1063 25.74 97.1063 25.18C97.1063 24.62 97.2423 24.112 97.5143 23.656C97.7943 23.2 98.1663 22.836 98.6303 22.564C99.0943 22.292 99.6063 22.156 100.166 22.156ZM113.98 33.844H115.493V29.116H120.208V27.604H115.493V22.876H113.98V27.604H109.253V29.116H113.98V33.844Z" fill="#FF75BB"/>
<defs>
<filter id="filter0_f" x="0" y="0" width="212" height="107" filterUnits="userSpaceOnUse" color-interpolation-filters="sRGB">
<feFlood flood-opacity="0" result="BackgroundImageFix"/>
<feBlend mode="normal" in="SourceGraphic" in2="BackgroundImageFix" result="shape"/>
<feGaussianBlur stdDeviation="12" result="effect1_foregroundBlur"/>
</filter>
<filter id="filter1_b" x="-15" y="-23" width="242" height="119" filterUnits="userSpaceOnUse" color-interpolation-filters="sRGB">
<feFlood flood-opacity="0" result="BackgroundImageFix"/>
<feGaussianBlur in="BackgroundImage" stdDeviation="11.5"/>
<feComposite in2="SourceAlpha" operator="in" result="effect1_backgroundBlur"/>
<feBlend mode="normal" in="SourceGraphic" in2="effect1_backgroundBlur" result="shape"/>
</filter>
</defs>
</svg>
