<svg width="134" height="148" viewBox="0 0 134 148" fill="none" xmlns="http://www.w3.org/2000/svg">
<g filter="url(#filter0_f)">
<rect x="24" y="24" width="86" height="100" rx="17" fill="black" fill-opacity="0.08"/>
</g>
<rect x="12" y="9.82758" width="110" height="106.207" rx="4" fill="white"/>
<g filter="url(#filter1_f)">
<rect x="40.069" y="43.2069" width="53.1034" height="37.931" rx="12.8966" fill="black" fill-opacity="0.08"/>
</g>
<rect x="30" width="74.3448" height="74.3448" rx="4" fill="#E6F1FF"/>
<path d="M57.3489 42.0712L54.2126 65.6839L67.1724 57.908L80.1322 65.6839L76.9959 42.0453" fill="#6266EA"/>
<path d="M67.1725 44.9483C77.193 44.9483 85.3162 36.8251 85.3162 26.8046C85.3162 16.7842 77.193 8.66095 67.1725 8.66095C57.152 8.66095 49.0288 16.7842 49.0288 26.8046C49.0288 36.8251 57.152 44.9483 67.1725 44.9483Z" fill="#8083DE" stroke="#6266EA" stroke-width="2.27586" stroke-linecap="round" stroke-linejoin="round"/>
<path d="M66.2318 21.184H63.4718V19.312C64.2238 19.312 64.8238 19.248 65.2718 19.12C65.7358 18.992 66.1038 18.784 66.3758 18.496C66.6478 18.192 66.8878 17.76 67.0958 17.2H68.8718V34H66.2318V21.184Z" fill="white"/>
<path d="M49.3848 102.676C49.9715 102.676 50.5051 102.557 50.9855 102.319C51.466 102.082 51.8554 101.702 52.1538 101.181C52.3612 100.822 52.4724 100.476 52.4876 100.142C52.5078 99.8032 52.5179 99.3809 52.5179 98.8751V91.5241H50.6669V98.8751C50.6669 99.1735 50.6593 99.4365 50.6441 99.6641C50.634 99.8866 50.5936 100.079 50.5228 100.241C50.4064 100.494 50.2294 100.678 49.9917 100.794C49.754 100.906 49.529 100.961 49.3166 100.961C48.9929 100.961 48.697 100.85 48.429 100.628C48.1609 100.405 47.9991 100.14 47.9435 99.831L46.1379 100.263C46.3605 100.997 46.7474 101.583 47.2986 102.023C47.8499 102.458 48.5453 102.676 49.3848 102.676ZM57.8734 102.683C58.4652 102.683 58.9836 102.582 59.4286 102.38C59.8787 102.173 60.253 101.892 60.5514 101.538V102.448H62.1672V94.2551H60.3314V98.4655C60.3314 99.128 60.2353 99.6413 60.0431 100.005C59.856 100.365 59.6157 100.615 59.3224 100.757C59.0291 100.893 58.7256 100.961 58.4121 100.961C57.9771 100.961 57.6307 100.868 57.3728 100.681C57.1148 100.488 56.9226 100.248 56.7962 99.96C56.6748 99.6666 56.5939 99.3632 56.5534 99.0496C56.518 98.7361 56.5003 98.4528 56.5003 98.2V94.2551H54.6493V98.8296C54.6493 99.0218 54.6645 99.2772 54.6948 99.5958C54.7302 99.9144 54.8036 100.251 54.9148 100.605C55.0261 100.959 55.198 101.295 55.4307 101.614C55.6633 101.927 55.9769 102.185 56.3714 102.388C56.7709 102.585 57.2716 102.683 57.8734 102.683ZM66.5896 102.676C67.2421 102.676 67.7958 102.57 68.251 102.357C68.7113 102.14 69.1158 101.803 69.4648 101.348V102.448H71.0655V97.4186C71.0655 97.0646 71.0503 96.7384 71.02 96.44C70.9896 96.1365 70.9011 95.8407 70.7545 95.5524C70.4864 95.0112 70.0742 94.6218 69.5179 94.3841C68.9667 94.1464 68.3269 94.0276 67.5986 94.0276C66.6377 94.0276 65.8715 94.2374 65.3 94.6572C64.7285 95.077 64.3416 95.6333 64.1393 96.3262L65.8083 96.8496C65.9448 96.4299 66.185 96.134 66.529 95.962C66.8729 95.7901 67.2294 95.7041 67.5986 95.7041C68.1549 95.7041 68.5646 95.8179 68.8276 96.0455C69.0906 96.268 69.2398 96.6144 69.2752 97.0848C68.557 97.191 67.8894 97.2947 67.2724 97.3958C66.6604 97.4919 66.1395 97.6108 65.7096 97.7524C65.0623 97.9749 64.5894 98.291 64.291 98.7007C63.9926 99.1053 63.8434 99.6059 63.8434 100.203C63.8434 100.653 63.9471 101.065 64.1545 101.439C64.3669 101.814 64.6779 102.114 65.0876 102.342C65.4972 102.565 65.9979 102.676 66.5896 102.676ZM66.9538 101.219C66.5239 101.219 66.1952 101.121 65.9676 100.923C65.745 100.726 65.6338 100.478 65.6338 100.18C65.6338 99.9119 65.7198 99.6944 65.8917 99.5276C66.0687 99.3607 66.314 99.219 66.6276 99.1027C66.9158 99.0066 67.2623 98.9232 67.6669 98.8524C68.0715 98.7765 68.6 98.688 69.2524 98.5869C69.2473 98.779 69.2347 98.994 69.2145 99.2317C69.1942 99.4643 69.1462 99.6742 69.0703 99.8613C69.0096 100.048 68.8908 100.248 68.7138 100.461C68.5418 100.673 68.3092 100.853 68.0158 100.999C67.7225 101.146 67.3685 101.219 66.9538 101.219ZM73.0405 102.448H74.8764V98.2834C74.8764 97.808 74.9624 97.3857 75.1343 97.0165C75.3113 96.6473 75.587 96.3616 75.9612 96.1593C76.2141 96.0126 76.4973 95.9266 76.8109 95.9013C77.1244 95.871 77.4051 95.8912 77.6529 95.962V94.2551C77.2837 94.1995 76.9044 94.2071 76.515 94.2779C76.1256 94.3436 75.7791 94.4802 75.4757 94.6876C75.3037 94.7938 75.1495 94.9227 75.0129 95.0744C74.8764 95.2211 74.7575 95.3855 74.6564 95.5676V94.2551H73.0405V102.448ZM81.199 102.676C81.8514 102.676 82.4052 102.57 82.8604 102.357C83.3206 102.14 83.7252 101.803 84.0742 101.348V102.448H85.6749V97.4186C85.6749 97.0646 85.6597 96.7384 85.6294 96.44C85.599 96.1365 85.5105 95.8407 85.3638 95.5524C85.0958 95.0112 84.6836 94.6218 84.1273 94.3841C83.576 94.1464 82.9363 94.0276 82.208 94.0276C81.2471 94.0276 80.4809 94.2374 79.9094 94.6572C79.3379 95.077 78.951 95.6333 78.7487 96.3262L80.4176 96.8496C80.5542 96.4299 80.7944 96.134 81.1383 95.962C81.4822 95.7901 81.8388 95.7041 82.208 95.7041C82.7643 95.7041 83.174 95.8179 83.4369 96.0455C83.6999 96.268 83.8491 96.6144 83.8845 97.0848C83.1664 97.191 82.4988 97.2947 81.8818 97.3958C81.2698 97.4919 80.7489 97.6108 80.319 97.7524C79.6717 97.9749 79.1988 98.291 78.9004 98.7007C78.602 99.1053 78.4528 99.6059 78.4528 100.203C78.4528 100.653 78.5565 101.065 78.7638 101.439C78.9763 101.814 79.2873 102.114 79.6969 102.342C80.1066 102.565 80.6073 102.676 81.199 102.676ZM81.5632 101.219C81.1333 101.219 80.8045 101.121 80.5769 100.923C80.3544 100.726 80.2432 100.478 80.2432 100.18C80.2432 99.9119 80.3291 99.6944 80.5011 99.5276C80.6781 99.3607 80.9234 99.219 81.2369 99.1027C81.5252 99.0066 81.8717 98.9232 82.2763 98.8524C82.6809 98.7765 83.2094 98.688 83.8618 98.5869C83.8567 98.779 83.8441 98.994 83.8238 99.2317C83.8036 99.4643 83.7556 99.6742 83.6797 99.8613C83.619 100.048 83.5002 100.248 83.3232 100.461C83.1512 100.673 82.9186 100.853 82.6252 100.999C82.3319 101.146 81.9779 101.219 81.5632 101.219Z" fill="#373737"/>
<defs>
<filter id="filter0_f" x="0" y="0" width="134" height="148" filterUnits="userSpaceOnUse" color-interpolation-filters="sRGB">
<feFlood flood-opacity="0" result="BackgroundImageFix"/>
<feBlend mode="normal" in="SourceGraphic" in2="BackgroundImageFix" result="shape"/>
<feGaussianBlur stdDeviation="12" result="effect1_foregroundBlur"/>
</filter>
<filter id="filter1_f" x="21.8621" y="25" width="89.5172" height="74.3448" filterUnits="userSpaceOnUse" color-interpolation-filters="sRGB">
<feFlood flood-opacity="0" result="BackgroundImageFix"/>
<feBlend mode="normal" in="SourceGraphic" in2="BackgroundImageFix" result="shape"/>
<feGaussianBlur stdDeviation="9.10345" result="effect1_foregroundBlur"/>
</filter>
</defs>
</svg>
