<svg width="753" height="323" viewBox="0 0 753 323" fill="none" xmlns="http://www.w3.org/2000/svg">
<rect x="0.5" y="0.5" width="752" height="322" rx="7.5" fill="#FAFAFF"/>
<rect x="0.5" y="0.5" width="752" height="322" rx="7.5" fill="url(#paint0_linear)"/>
<path d="M310.25 129.5H442.75" stroke="#FFD686" stroke-width="6.22222" stroke-linecap="round" stroke-linejoin="round"/>
<path d="M310.25 96.375H343.375" stroke="#FF75BB" stroke-width="6.22222" stroke-linecap="round" stroke-linejoin="round"/>
<path d="M310.25 162.625H343.375" stroke="#FF75BB" stroke-width="6.22222" stroke-linecap="round" stroke-linejoin="round"/>
<path d="M409.625 162.625H442.75" stroke="#FF75BB" stroke-width="6.22222" stroke-linecap="round" stroke-linejoin="round"/>
<path d="M409.625 96.375H442.75" stroke="#FF75BB" stroke-width="6.22222" stroke-linecap="round" stroke-linejoin="round"/>
<path d="M343.375 63.25V195.75" stroke="#FFD686" stroke-width="6.22222" stroke-linecap="round" stroke-linejoin="round"/>
<path d="M409.625 63.25V195.75" stroke="#FFD686" stroke-width="6.22222" stroke-linecap="round" stroke-linejoin="round"/>
<path d="M428.308 63.25H324.693C316.716 63.25 310.25 69.7161 310.25 77.6925V181.308C310.25 189.284 316.716 195.75 324.693 195.75H428.308C436.284 195.75 442.75 189.284 442.75 181.308V77.6925C442.75 69.7161 436.284 63.25 428.308 63.25Z" stroke="#6266EA" stroke-width="6.22222" stroke-linecap="round" stroke-linejoin="round"/>
<path d="M34.52 279H42.638C42.878 279 43.322 278.994 43.97 278.982C44.63 278.97 45.26 278.922 45.86 278.838C47.888 278.574 49.592 277.848 50.972 276.66C52.364 275.46 53.414 273.942 54.122 272.106C54.83 270.258 55.184 268.236 55.184 266.04C55.184 263.832 54.83 261.81 54.122 259.974C53.414 258.126 52.364 256.608 50.972 255.42C49.592 254.22 47.888 253.494 45.86 253.242C45.26 253.158 44.63 253.11 43.97 253.098C43.322 253.086 42.878 253.08 42.638 253.08H34.52V279ZM38.372 275.418V256.662H42.638C43.034 256.662 43.514 256.674 44.078 256.698C44.654 256.71 45.158 256.758 45.59 256.842C46.886 257.082 47.942 257.646 48.758 258.534C49.586 259.41 50.198 260.502 50.594 261.81C50.99 263.106 51.188 264.516 51.188 266.04C51.188 267.516 50.996 268.908 50.612 270.216C50.228 271.524 49.622 272.628 48.794 273.528C47.978 274.416 46.91 274.986 45.59 275.238C45.158 275.322 44.66 275.376 44.096 275.4C43.544 275.412 43.058 275.418 42.638 275.418H38.372ZM64.8655 279.54C67.9615 279.54 70.2955 278.418 71.8675 276.174V279H75.1975V267.03C75.1975 266.214 75.1615 265.452 75.0895 264.744C75.0175 264.036 74.8255 263.364 74.5135 262.728C73.9135 261.444 72.9655 260.508 71.6695 259.92C70.3855 259.32 68.8735 259.02 67.1335 259.02C64.8895 259.02 63.0895 259.512 61.7335 260.496C60.3775 261.48 59.4655 262.806 58.9975 264.474L62.5075 265.554C62.8435 264.474 63.4375 263.694 64.2895 263.214C65.1415 262.734 66.0775 262.494 67.0975 262.494C68.6095 262.494 69.7015 262.818 70.3735 263.466C71.0575 264.102 71.4295 265.092 71.4895 266.436C69.9055 266.652 68.3575 266.88 66.8455 267.12C65.3335 267.348 64.0135 267.624 62.8855 267.948C61.3855 268.428 60.2455 269.142 59.4655 270.09C58.6855 271.038 58.2955 272.244 58.2955 273.708C58.2955 274.764 58.5415 275.736 59.0335 276.624C59.5375 277.5 60.2755 278.208 61.2475 278.748C62.2315 279.276 63.4375 279.54 64.8655 279.54ZM65.5315 276.462C64.3315 276.462 63.4435 276.186 62.8675 275.634C62.3035 275.082 62.0215 274.428 62.0215 273.672C62.0215 272.904 62.2735 272.298 62.7775 271.854C63.2935 271.41 63.9355 271.056 64.7035 270.792C65.5195 270.552 66.4795 270.342 67.5835 270.162C68.6995 269.982 69.9895 269.784 71.4535 269.568C71.4415 270.024 71.4115 270.534 71.3635 271.098C71.3155 271.662 71.2135 272.166 71.0575 272.61C70.9135 273.246 70.6075 273.858 70.1395 274.446C69.6835 275.034 69.0655 275.52 68.2855 275.904C67.5175 276.276 66.5995 276.462 65.5315 276.462ZM87.3056 279.522C89.7656 279.522 91.6916 278.976 93.0836 277.884C94.4876 276.792 95.1896 275.286 95.1896 273.366C95.1896 272.358 94.9796 271.506 94.5596 270.81C94.1516 270.114 93.4676 269.514 92.5076 269.01C91.5476 268.494 90.2516 268.026 88.6196 267.606C87.0956 267.222 85.9436 266.892 85.1636 266.616C84.3956 266.328 83.8736 266.04 83.5976 265.752C83.3216 265.452 83.1836 265.086 83.1836 264.654C83.1836 263.91 83.5376 263.328 84.2456 262.908C84.9536 262.476 85.8776 262.284 87.0176 262.332C88.2056 262.38 89.1716 262.68 89.9156 263.232C90.6596 263.772 91.0976 264.504 91.2296 265.428L95.0816 264.726C94.8656 262.998 94.0196 261.618 92.5436 260.586C91.0676 259.542 89.2136 259.02 86.9816 259.02C84.7016 259.02 82.8716 259.554 81.4916 260.622C80.1116 261.678 79.4216 263.088 79.4216 264.852C79.4216 265.8 79.6256 266.61 80.0336 267.282C80.4536 267.942 81.1496 268.518 82.1216 269.01C83.1056 269.502 84.4316 269.97 86.0996 270.414C87.6236 270.822 88.7576 271.164 89.5016 271.44C90.2456 271.716 90.7316 272.01 90.9596 272.322C91.1996 272.622 91.3196 273.018 91.3196 273.51C91.3196 274.35 90.9836 275.01 90.3116 275.49C89.6516 275.97 88.7336 276.21 87.5576 276.21C86.2616 276.21 85.1756 275.922 84.2996 275.346C83.4356 274.77 82.8836 273.972 82.6436 272.952L78.7916 273.546C79.1276 275.442 80.0396 276.912 81.5276 277.956C83.0156 279 84.9416 279.522 87.3056 279.522ZM104.662 279.54C107.758 279.54 110.092 278.418 111.664 276.174V279H114.994V267.03C114.994 266.214 114.958 265.452 114.886 264.744C114.814 264.036 114.622 263.364 114.31 262.728C113.71 261.444 112.762 260.508 111.466 259.92C110.182 259.32 108.67 259.02 106.93 259.02C104.686 259.02 102.886 259.512 101.53 260.496C100.174 261.48 99.2623 262.806 98.7943 264.474L102.304 265.554C102.64 264.474 103.234 263.694 104.086 263.214C104.938 262.734 105.874 262.494 106.894 262.494C108.406 262.494 109.498 262.818 110.17 263.466C110.854 264.102 111.226 265.092 111.286 266.436C109.702 266.652 108.154 266.88 106.642 267.12C105.13 267.348 103.81 267.624 102.682 267.948C101.182 268.428 100.042 269.142 99.2623 270.09C98.4823 271.038 98.0923 272.244 98.0923 273.708C98.0923 274.764 98.3383 275.736 98.8303 276.624C99.3343 277.5 100.072 278.208 101.044 278.748C102.028 279.276 103.234 279.54 104.662 279.54ZM105.328 276.462C104.128 276.462 103.24 276.186 102.664 275.634C102.1 275.082 101.818 274.428 101.818 273.672C101.818 272.904 102.07 272.298 102.574 271.854C103.09 271.41 103.732 271.056 104.5 270.792C105.316 270.552 106.276 270.342 107.38 270.162C108.496 269.982 109.786 269.784 111.25 269.568C111.238 270.024 111.208 270.534 111.16 271.098C111.112 271.662 111.01 272.166 110.854 272.61C110.71 273.246 110.404 273.858 109.936 274.446C109.48 275.034 108.862 275.52 108.082 275.904C107.314 276.276 106.396 276.462 105.328 276.462ZM119.668 279H123.466V269.19C123.466 268.05 123.646 266.994 124.006 266.022C124.366 265.05 125.002 264.27 125.914 263.682C126.562 263.262 127.276 263.016 128.056 262.944C128.836 262.872 129.538 262.92 130.162 263.088V259.56C129.286 259.392 128.356 259.398 127.372 259.578C126.4 259.758 125.548 260.118 124.816 260.658C124.096 261.138 123.496 261.804 123.016 262.656V259.56H119.668V279ZM138.997 279H142.903L144.793 273.15H155.431L157.357 279H161.263L152.839 253.08H147.421L138.997 279ZM145.945 269.622L150.085 256.842L154.279 269.622H145.945ZM172.215 279.54C173.439 279.54 174.531 279.336 175.491 278.928C176.463 278.52 177.303 277.95 178.011 277.218V279H181.359V253.08H177.579V260.892C176.907 260.292 176.127 259.83 175.239 259.506C174.351 259.182 173.367 259.02 172.287 259.02C170.463 259.02 168.885 259.47 167.553 260.37C166.233 261.258 165.213 262.476 164.493 264.024C163.773 265.56 163.413 267.306 163.413 269.262C163.413 271.206 163.767 272.952 164.475 274.5C165.195 276.048 166.215 277.278 167.535 278.19C168.855 279.09 170.415 279.54 172.215 279.54ZM172.737 276.138C171.537 276.138 170.541 275.832 169.749 275.22C168.957 274.608 168.369 273.786 167.985 272.754C167.601 271.71 167.409 270.546 167.409 269.262C167.409 267.99 167.601 266.838 167.985 265.806C168.381 264.774 168.981 263.952 169.785 263.34C170.589 262.728 171.615 262.422 172.863 262.422C174.639 262.422 175.941 263.058 176.769 264.33C177.597 265.602 178.011 267.246 178.011 269.262C178.011 271.278 177.597 272.928 176.769 274.212C175.941 275.496 174.597 276.138 172.737 276.138ZM194.837 279.54C196.769 279.54 198.449 279.108 199.877 278.244C201.305 277.368 202.409 276.162 203.189 274.626C203.981 273.078 204.377 271.29 204.377 269.262C204.377 267.258 203.987 265.488 203.207 263.952C202.427 262.404 201.323 261.198 199.895 260.334C198.467 259.458 196.781 259.02 194.837 259.02C192.929 259.02 191.261 259.452 189.833 260.316C188.405 261.18 187.295 262.38 186.503 263.916C185.711 265.452 185.315 267.234 185.315 269.262C185.315 271.266 185.705 273.042 186.485 274.59C187.265 276.138 188.363 277.35 189.779 278.226C191.207 279.102 192.893 279.54 194.837 279.54ZM194.837 275.994C193.025 275.994 191.651 275.388 190.715 274.176C189.779 272.952 189.311 271.314 189.311 269.262C189.311 267.282 189.761 265.674 190.661 264.438C191.561 263.19 192.953 262.566 194.837 262.566C196.673 262.566 198.053 263.172 198.977 264.384C199.913 265.596 200.381 267.222 200.381 269.262C200.381 271.254 199.919 272.874 198.995 274.122C198.083 275.37 196.697 275.994 194.837 275.994ZM208.315 279H211.663V277.218C212.371 277.95 213.205 278.52 214.165 278.928C215.137 279.336 216.235 279.54 217.459 279.54C219.271 279.54 220.831 279.09 222.139 278.19C223.459 277.278 224.473 276.048 225.181 274.5C225.901 272.952 226.261 271.206 226.261 269.262C226.261 267.306 225.901 265.56 225.181 264.024C224.461 262.476 223.435 261.258 222.103 260.37C220.783 259.47 219.211 259.02 217.387 259.02C216.307 259.02 215.323 259.182 214.435 259.506C213.547 259.83 212.767 260.292 212.095 260.892V253.08H208.315V279ZM216.937 276.138C215.089 276.138 213.745 275.496 212.905 274.212C212.077 272.928 211.663 271.278 211.663 269.262C211.663 267.246 212.077 265.602 212.905 264.33C213.733 263.058 215.035 262.422 216.811 262.422C218.059 262.422 219.085 262.728 219.889 263.34C220.693 263.952 221.287 264.774 221.671 265.806C222.067 266.838 222.265 267.99 222.265 269.262C222.265 270.546 222.073 271.71 221.689 272.754C221.305 273.786 220.717 274.608 219.925 275.22C219.145 275.832 218.149 276.138 216.937 276.138ZM238.857 279.54C240.741 279.54 242.451 279.066 243.987 278.118C245.523 277.158 246.669 275.808 247.425 274.068L243.735 272.898C242.751 274.962 241.065 275.994 238.677 275.994C237.045 275.994 235.761 275.502 234.825 274.518C233.889 273.534 233.343 272.142 233.187 270.342H247.677C247.809 268.014 247.533 266.004 246.849 264.312C246.165 262.62 245.127 261.318 243.735 260.406C242.343 259.482 240.657 259.02 238.677 259.02C236.781 259.02 235.119 259.446 233.691 260.298C232.263 261.15 231.147 262.356 230.343 263.916C229.551 265.476 229.155 267.318 229.155 269.442C229.155 271.446 229.557 273.21 230.361 274.734C231.177 276.246 232.311 277.428 233.763 278.28C235.227 279.12 236.925 279.54 238.857 279.54ZM238.821 262.35C241.761 262.35 243.429 264.036 243.825 267.408H233.277C233.517 265.764 234.099 264.51 235.023 263.646C235.947 262.782 237.213 262.35 238.821 262.35ZM258.922 279H262.684V269.694H269.398C269.638 269.694 269.944 269.682 270.316 269.658C270.7 269.634 271.06 269.598 271.396 269.55C273.556 269.202 275.176 268.278 276.256 266.778C277.348 265.278 277.894 263.478 277.894 261.378C277.894 259.278 277.354 257.478 276.274 255.978C275.194 254.478 273.568 253.56 271.396 253.224C271.06 253.164 270.706 253.128 270.334 253.116C269.962 253.092 269.65 253.08 269.398 253.08H258.922V279ZM262.684 266.13V256.626H269.254C269.494 256.626 269.758 256.638 270.046 256.662C270.346 256.686 270.628 256.734 270.892 256.806C272.044 257.07 272.86 257.658 273.34 258.57C273.82 259.482 274.06 260.418 274.06 261.378C274.06 262.326 273.82 263.262 273.34 264.186C272.86 265.098 272.044 265.692 270.892 265.968C270.628 266.028 270.346 266.07 270.046 266.094C269.758 266.118 269.494 266.13 269.254 266.13H262.684ZM281.493 279H285.291V269.19C285.291 268.05 285.471 266.994 285.831 266.022C286.191 265.05 286.827 264.27 287.739 263.682C288.387 263.262 289.101 263.016 289.881 262.944C290.661 262.872 291.363 262.92 291.987 263.088V259.56C291.111 259.392 290.181 259.398 289.197 259.578C288.225 259.758 287.373 260.118 286.641 260.658C285.921 261.138 285.321 261.804 284.841 262.656V259.56H281.493V279ZM303.685 279.54C305.569 279.54 307.279 279.066 308.815 278.118C310.351 277.158 311.497 275.808 312.253 274.068L308.563 272.898C307.579 274.962 305.893 275.994 303.505 275.994C301.873 275.994 300.589 275.502 299.653 274.518C298.717 273.534 298.171 272.142 298.015 270.342H312.505C312.637 268.014 312.361 266.004 311.677 264.312C310.993 262.62 309.955 261.318 308.563 260.406C307.171 259.482 305.485 259.02 303.505 259.02C301.609 259.02 299.947 259.446 298.519 260.298C297.091 261.15 295.975 262.356 295.171 263.916C294.379 265.476 293.983 267.318 293.983 269.442C293.983 271.446 294.385 273.21 295.189 274.734C296.005 276.246 297.139 277.428 298.591 278.28C300.055 279.12 301.753 279.54 303.685 279.54ZM303.649 262.35C306.589 262.35 308.257 264.036 308.653 267.408H298.105C298.345 265.764 298.927 264.51 299.851 263.646C300.775 262.782 302.041 262.35 303.649 262.35ZM315.998 279H319.778V266.85C319.778 265.53 320.138 264.462 320.858 263.646C321.59 262.83 322.55 262.422 323.738 262.422C324.938 262.422 325.892 262.83 326.6 263.646C327.32 264.45 327.68 265.554 327.68 266.958L327.662 279H331.424L331.442 266.85C331.442 265.386 331.832 264.282 332.612 263.538C333.404 262.794 334.334 262.422 335.402 262.422C336.578 262.422 337.526 262.818 338.246 263.61C338.966 264.402 339.326 265.494 339.326 266.886L339.308 279H343.07L343.088 265.986C343.088 263.898 342.506 262.224 341.342 260.964C340.19 259.704 338.57 259.074 336.482 259.074C335.21 259.074 334.058 259.356 333.026 259.92C331.994 260.472 331.178 261.24 330.578 262.224C330.062 261.24 329.324 260.472 328.364 259.92C327.416 259.356 326.27 259.074 324.926 259.074C323.762 259.074 322.694 259.308 321.722 259.776C320.762 260.232 319.97 260.856 319.346 261.648V259.56H315.998V279ZM348.122 256.374H351.884V252.72H348.122V256.374ZM348.122 279H351.884V259.56H348.122V279ZM365.912 279.54C367.796 279.54 369.506 279.066 371.042 278.118C372.578 277.158 373.724 275.808 374.48 274.068L370.79 272.898C369.806 274.962 368.12 275.994 365.732 275.994C364.1 275.994 362.816 275.502 361.88 274.518C360.944 273.534 360.398 272.142 360.242 270.342H374.732C374.864 268.014 374.588 266.004 373.904 264.312C373.22 262.62 372.182 261.318 370.79 260.406C369.398 259.482 367.712 259.02 365.732 259.02C363.836 259.02 362.174 259.446 360.746 260.298C359.318 261.15 358.202 262.356 357.398 263.916C356.606 265.476 356.21 267.318 356.21 269.442C356.21 271.446 356.612 273.21 357.416 274.734C358.232 276.246 359.366 277.428 360.818 278.28C362.282 279.12 363.98 279.54 365.912 279.54ZM365.876 262.35C368.816 262.35 370.484 264.036 370.88 267.408H360.332C360.572 265.764 361.154 264.51 362.078 263.646C363.002 262.782 364.268 262.35 365.876 262.35ZM378.77 279H382.568V269.19C382.568 268.05 382.748 266.994 383.108 266.022C383.468 265.05 384.104 264.27 385.016 263.682C385.664 263.262 386.378 263.016 387.158 262.944C387.938 262.872 388.64 262.92 389.264 263.088V259.56C388.388 259.392 387.458 259.398 386.474 259.578C385.502 259.758 384.65 260.118 383.918 260.658C383.198 261.138 382.598 261.804 382.118 262.656V259.56H378.77V279ZM400.962 279.54C402.846 279.54 404.556 279.066 406.092 278.118C407.628 277.158 408.774 275.808 409.53 274.068L405.84 272.898C404.856 274.962 403.17 275.994 400.782 275.994C399.15 275.994 397.866 275.502 396.93 274.518C395.994 273.534 395.448 272.142 395.292 270.342H409.782C409.914 268.014 409.638 266.004 408.954 264.312C408.27 262.62 407.232 261.318 405.84 260.406C404.448 259.482 402.762 259.02 400.782 259.02C398.886 259.02 397.224 259.446 395.796 260.298C394.368 261.15 393.252 262.356 392.448 263.916C391.656 265.476 391.26 267.318 391.26 269.442C391.26 271.446 391.662 273.21 392.466 274.734C393.282 276.246 394.416 277.428 395.868 278.28C397.332 279.12 399.03 279.54 400.962 279.54ZM400.926 262.35C403.866 262.35 405.534 264.036 405.93 267.408H395.382C395.622 265.764 396.204 264.51 397.128 263.646C398.052 262.782 399.318 262.35 400.926 262.35Z" fill="white"/>
<rect x="0.5" y="0.5" width="752" height="322" rx="7.5" stroke="#EFEFEF"/>
<defs>
<linearGradient id="paint0_linear" x1="377" y1="0" x2="377" y2="323" gradientUnits="userSpaceOnUse">
<stop offset="0.210477" stop-color="#E4E4E4" stop-opacity="0"/>
<stop offset="1" stop-opacity="0.4"/>
</linearGradient>
</defs>
</svg>
