<svg width="753" height="323" viewBox="0 0 753 323" fill="none" xmlns="http://www.w3.org/2000/svg">
<rect x="0.5" y="0.5" width="752" height="322" rx="7.5" fill="#FAFAFF"/>
<rect x="0.5" y="0.5" width="752" height="322" rx="7.5" fill="url(#paint0_linear)"/>
<path d="M376.261 215.121V258.208" stroke="#FF75BB" stroke-width="11.2401" stroke-linecap="round" stroke-linejoin="round"/>
<path d="M462.435 64.3154H290.087C278.188 64.3154 268.543 73.9608 268.543 85.859V193.577C268.543 205.475 278.188 215.121 290.087 215.121H462.435C474.334 215.121 483.979 205.475 483.979 193.577V85.859C483.979 73.9608 474.334 64.3154 462.435 64.3154Z" stroke="#6266EA" stroke-width="11.2401" stroke-linecap="round" stroke-linejoin="round"/>
<path d="M333.174 258.208H419.348" stroke="#FFD686" stroke-width="11.2401" stroke-linecap="round" stroke-linejoin="round"/>
<path d="M40.01 279H43.754L49.316 259.614L54.878 279H58.622L66.164 253.08H62.204L56.75 272.682L51.296 253.08L47.336 253.098L41.882 272.682L36.428 253.08H32.486L40.01 279ZM75.6615 279.54C77.5455 279.54 79.2555 279.066 80.7915 278.118C82.3275 277.158 83.4735 275.808 84.2295 274.068L80.5395 272.898C79.5555 274.962 77.8695 275.994 75.4815 275.994C73.8495 275.994 72.5655 275.502 71.6295 274.518C70.6935 273.534 70.1475 272.142 69.9915 270.342H84.4815C84.6135 268.014 84.3375 266.004 83.6535 264.312C82.9695 262.62 81.9315 261.318 80.5395 260.406C79.1475 259.482 77.4615 259.02 75.4815 259.02C73.5855 259.02 71.9235 259.446 70.4955 260.298C69.0675 261.15 67.9515 262.356 67.1475 263.916C66.3555 265.476 65.9595 267.318 65.9595 269.442C65.9595 271.446 66.3615 273.21 67.1655 274.734C67.9815 276.246 69.1155 277.428 70.5675 278.28C72.0315 279.12 73.7295 279.54 75.6615 279.54ZM75.6255 262.35C78.5655 262.35 80.2335 264.036 80.6295 267.408H70.0815C70.3215 265.764 70.9035 264.51 71.8275 263.646C72.7515 262.782 74.0175 262.35 75.6255 262.35ZM88.502 279H91.85V277.218C92.558 277.95 93.392 278.52 94.352 278.928C95.324 279.336 96.422 279.54 97.646 279.54C99.458 279.54 101.018 279.09 102.326 278.19C103.646 277.278 104.66 276.048 105.368 274.5C106.088 272.952 106.448 271.206 106.448 269.262C106.448 267.306 106.088 265.56 105.368 264.024C104.648 262.476 103.622 261.258 102.29 260.37C100.97 259.47 99.398 259.02 97.574 259.02C96.494 259.02 95.51 259.182 94.622 259.506C93.734 259.83 92.954 260.292 92.282 260.892V253.08H88.502V279ZM97.124 276.138C95.276 276.138 93.932 275.496 93.092 274.212C92.264 272.928 91.85 271.278 91.85 269.262C91.85 267.246 92.264 265.602 93.092 264.33C93.92 263.058 95.222 262.422 96.998 262.422C98.246 262.422 99.272 262.728 100.076 263.34C100.88 263.952 101.474 264.774 101.858 265.806C102.254 266.838 102.452 267.99 102.452 269.262C102.452 270.546 102.26 271.71 101.876 272.754C101.492 273.786 100.904 274.608 100.112 275.22C99.332 275.832 98.336 276.138 97.124 276.138ZM117.629 279H125.747C125.987 279 126.431 278.994 127.079 278.982C127.739 278.97 128.369 278.922 128.969 278.838C130.997 278.574 132.701 277.848 134.081 276.66C135.473 275.46 136.523 273.942 137.231 272.106C137.939 270.258 138.293 268.236 138.293 266.04C138.293 263.832 137.939 261.81 137.231 259.974C136.523 258.126 135.473 256.608 134.081 255.42C132.701 254.22 130.997 253.494 128.969 253.242C128.369 253.158 127.739 253.11 127.079 253.098C126.431 253.086 125.987 253.08 125.747 253.08H117.629V279ZM121.481 275.418V256.662H125.747C126.143 256.662 126.623 256.674 127.187 256.698C127.763 256.71 128.267 256.758 128.699 256.842C129.995 257.082 131.051 257.646 131.867 258.534C132.695 259.41 133.307 260.502 133.703 261.81C134.099 263.106 134.297 264.516 134.297 266.04C134.297 267.516 134.105 268.908 133.721 270.216C133.337 271.524 132.731 272.628 131.903 273.528C131.087 274.416 130.019 274.986 128.699 275.238C128.267 275.322 127.769 275.376 127.205 275.4C126.653 275.412 126.167 275.418 125.747 275.418H121.481ZM151.107 279.54C152.991 279.54 154.701 279.066 156.237 278.118C157.773 277.158 158.919 275.808 159.675 274.068L155.985 272.898C155.001 274.962 153.315 275.994 150.927 275.994C149.295 275.994 148.011 275.502 147.075 274.518C146.139 273.534 145.593 272.142 145.437 270.342H159.927C160.059 268.014 159.783 266.004 159.099 264.312C158.415 262.62 157.377 261.318 155.985 260.406C154.593 259.482 152.907 259.02 150.927 259.02C149.031 259.02 147.369 259.446 145.941 260.298C144.513 261.15 143.397 262.356 142.593 263.916C141.801 265.476 141.405 267.318 141.405 269.442C141.405 271.446 141.807 273.21 142.611 274.734C143.427 276.246 144.561 277.428 146.013 278.28C147.477 279.12 149.175 279.54 151.107 279.54ZM151.071 262.35C154.011 262.35 155.679 264.036 156.075 267.408H145.527C145.767 265.764 146.349 264.51 147.273 263.646C148.197 262.782 149.463 262.35 151.071 262.35ZM171.399 279.522C173.859 279.522 175.785 278.976 177.177 277.884C178.581 276.792 179.283 275.286 179.283 273.366C179.283 272.358 179.073 271.506 178.653 270.81C178.245 270.114 177.561 269.514 176.601 269.01C175.641 268.494 174.345 268.026 172.713 267.606C171.189 267.222 170.037 266.892 169.257 266.616C168.489 266.328 167.967 266.04 167.691 265.752C167.415 265.452 167.277 265.086 167.277 264.654C167.277 263.91 167.631 263.328 168.339 262.908C169.047 262.476 169.971 262.284 171.111 262.332C172.299 262.38 173.265 262.68 174.009 263.232C174.753 263.772 175.191 264.504 175.323 265.428L179.175 264.726C178.959 262.998 178.113 261.618 176.637 260.586C175.161 259.542 173.307 259.02 171.075 259.02C168.795 259.02 166.965 259.554 165.585 260.622C164.205 261.678 163.515 263.088 163.515 264.852C163.515 265.8 163.719 266.61 164.127 267.282C164.547 267.942 165.243 268.518 166.215 269.01C167.199 269.502 168.525 269.97 170.193 270.414C171.717 270.822 172.851 271.164 173.595 271.44C174.339 271.716 174.825 272.01 175.053 272.322C175.293 272.622 175.413 273.018 175.413 273.51C175.413 274.35 175.077 275.01 174.405 275.49C173.745 275.97 172.827 276.21 171.651 276.21C170.355 276.21 169.269 275.922 168.393 275.346C167.529 274.77 166.977 273.972 166.737 272.952L162.885 273.546C163.221 275.442 164.133 276.912 165.621 277.956C167.109 279 169.035 279.522 171.399 279.522ZM183.626 256.374H187.388V252.72H183.626V256.374ZM183.626 279H187.388V259.56H183.626V279ZM200.515 279.54C201.619 279.54 202.615 279.372 203.503 279.036C204.391 278.712 205.177 278.25 205.861 277.65V279.486C205.885 281.154 205.453 282.414 204.565 283.266C203.689 284.13 202.447 284.562 200.839 284.562C199.975 284.562 199.153 284.37 198.373 283.986C197.593 283.602 196.993 282.996 196.573 282.168L193.099 283.932C193.891 285.312 194.983 286.362 196.375 287.082C197.767 287.814 199.243 288.18 200.803 288.18C203.071 288.18 204.967 287.706 206.491 286.758C208.015 285.822 208.981 284.37 209.389 282.402C209.485 281.946 209.551 281.478 209.587 280.998C209.623 280.53 209.641 280.038 209.641 279.522V259.56H206.311V261.306C205.615 260.586 204.787 260.028 203.827 259.632C202.867 259.224 201.787 259.02 200.587 259.02C198.763 259.02 197.185 259.47 195.853 260.37C194.533 261.258 193.513 262.476 192.793 264.024C192.073 265.56 191.713 267.306 191.713 269.262C191.713 271.206 192.067 272.952 192.775 274.5C193.495 276.048 194.515 277.278 195.835 278.19C197.155 279.09 198.715 279.54 200.515 279.54ZM201.037 276.138C199.837 276.138 198.841 275.832 198.049 275.22C197.257 274.608 196.669 273.786 196.285 272.754C195.901 271.71 195.709 270.546 195.709 269.262C195.709 267.99 195.901 266.838 196.285 265.806C196.681 264.774 197.281 263.952 198.085 263.34C198.889 262.728 199.915 262.422 201.163 262.422C202.939 262.422 204.241 263.058 205.069 264.33C205.897 265.602 206.311 267.246 206.311 269.262C206.311 271.278 205.897 272.928 205.069 274.212C204.241 275.496 202.897 276.138 201.037 276.138ZM214.678 279H218.494V268.884C218.494 267.348 218.716 266.124 219.16 265.212C219.616 264.288 220.216 263.622 220.96 263.214C221.704 262.806 222.526 262.602 223.426 262.602C224.458 262.602 225.298 262.812 225.946 263.232C226.594 263.652 227.092 264.204 227.44 264.888C227.788 265.572 228.022 266.316 228.142 267.12C228.274 267.912 228.34 268.686 228.34 269.442V279H232.156V268.2C232.156 267.6 232.102 266.904 231.994 266.112C231.886 265.32 231.682 264.51 231.382 263.682C231.082 262.854 230.644 262.092 230.068 261.396C229.504 260.688 228.766 260.118 227.854 259.686C226.942 259.254 225.814 259.038 224.47 259.038C223.066 259.038 221.818 259.29 220.726 259.794C219.646 260.298 218.752 260.994 218.044 261.882V259.56H214.678V279ZM245.22 279.54C247.104 279.54 248.814 279.066 250.35 278.118C251.886 277.158 253.032 275.808 253.788 274.068L250.098 272.898C249.114 274.962 247.428 275.994 245.04 275.994C243.408 275.994 242.124 275.502 241.188 274.518C240.252 273.534 239.706 272.142 239.55 270.342H254.04C254.172 268.014 253.896 266.004 253.212 264.312C252.528 262.62 251.49 261.318 250.098 260.406C248.706 259.482 247.02 259.02 245.04 259.02C243.144 259.02 241.482 259.446 240.054 260.298C238.626 261.15 237.51 262.356 236.706 263.916C235.914 265.476 235.518 267.318 235.518 269.442C235.518 271.446 235.92 273.21 236.724 274.734C237.54 276.246 238.674 277.428 240.126 278.28C241.59 279.12 243.288 279.54 245.22 279.54ZM245.184 262.35C248.124 262.35 249.792 264.036 250.188 267.408H239.64C239.88 265.764 240.462 264.51 241.386 263.646C242.31 262.782 243.576 262.35 245.184 262.35ZM258.079 279H261.877V269.19C261.877 268.05 262.057 266.994 262.417 266.022C262.777 265.05 263.413 264.27 264.325 263.682C264.973 263.262 265.687 263.016 266.467 262.944C267.247 262.872 267.949 262.92 268.573 263.088V259.56C267.697 259.392 266.767 259.398 265.783 259.578C264.811 259.758 263.959 260.118 263.227 260.658C262.507 261.138 261.907 261.804 261.427 262.656V259.56H258.079V279Z" fill="white"/>
<rect x="0.5" y="0.5" width="752" height="322" rx="7.5" stroke="#EFEFEF"/>
<defs>
<linearGradient id="paint0_linear" x1="377" y1="0" x2="377" y2="323" gradientUnits="userSpaceOnUse">
<stop offset="0.210477" stop-color="#E4E4E4" stop-opacity="0"/>
<stop offset="1" stop-opacity="0.4"/>
</linearGradient>
</defs>
</svg>
