<svg width="753" height="323" viewBox="0 0 753 323" fill="none" xmlns="http://www.w3.org/2000/svg">
<rect x="0.5" y="0.5" width="752" height="322" rx="7.5" fill="#FAFAFF"/>
<rect x="0.5" y="0.5" width="752" height="322" rx="7.5" fill="url(#paint0_linear)"/>
<path d="M376.261 215.121V258.208" stroke="#FF75BB" stroke-width="11.2401" stroke-linecap="round" stroke-linejoin="round"/>
<path d="M462.435 64.3154H290.087C278.188 64.3154 268.543 73.9608 268.543 85.859V193.577C268.543 205.475 278.188 215.121 290.087 215.121H462.435C474.334 215.121 483.979 205.475 483.979 193.577V85.859C483.979 73.9608 474.334 64.3154 462.435 64.3154Z" stroke="#6266EA" stroke-width="11.2401" stroke-linecap="round" stroke-linejoin="round"/>
<path d="M333.174 258.208H419.348" stroke="#FFD686" stroke-width="11.2401" stroke-linecap="round" stroke-linejoin="round"/>
<path d="M321.438 153.174H335.834V149.465H325.394V129.538H321.438V153.174ZM343.571 153.667C344.983 153.667 346.181 153.437 347.166 152.977C348.162 152.507 349.037 151.779 349.792 150.794V153.174H353.256V142.292C353.256 141.526 353.223 140.82 353.157 140.174C353.091 139.518 352.9 138.878 352.583 138.254C352.003 137.083 351.111 136.24 349.907 135.726C348.714 135.212 347.33 134.955 345.754 134.955C343.675 134.955 342.017 135.409 340.781 136.317C339.544 137.225 338.707 138.429 338.269 139.928L341.881 141.061C342.176 140.153 342.696 139.512 343.44 139.14C344.184 138.768 344.956 138.582 345.754 138.582C346.958 138.582 347.844 138.828 348.413 139.321C348.982 139.802 349.305 140.552 349.382 141.57C347.828 141.799 346.384 142.024 345.049 142.243C343.724 142.451 342.597 142.708 341.667 143.014C340.267 143.496 339.243 144.179 338.598 145.066C337.952 145.941 337.629 147.025 337.629 148.316C337.629 149.29 337.854 150.182 338.302 150.991C338.762 151.801 339.435 152.452 340.321 152.945C341.208 153.426 342.291 153.667 343.571 153.667ZM344.359 150.515C343.429 150.515 342.718 150.302 342.225 149.875C341.744 149.448 341.503 148.912 341.503 148.267C341.503 147.687 341.689 147.216 342.061 146.855C342.444 146.494 342.975 146.187 343.653 145.936C344.277 145.728 345.027 145.547 345.902 145.394C346.777 145.23 347.921 145.038 349.333 144.82C349.322 145.235 349.294 145.701 349.251 146.215C349.207 146.718 349.103 147.172 348.939 147.577C348.807 147.982 348.55 148.414 348.167 148.874C347.795 149.334 347.292 149.722 346.657 150.039C346.022 150.357 345.256 150.515 344.359 150.515ZM357.529 153.174H361.501V144.163C361.501 143.134 361.687 142.221 362.059 141.422C362.442 140.623 363.039 140.005 363.848 139.567C364.396 139.25 365.008 139.064 365.687 139.009C366.365 138.943 366.973 138.987 367.509 139.14V135.447C366.71 135.327 365.889 135.343 365.047 135.496C364.204 135.639 363.454 135.934 362.798 136.383C362.426 136.613 362.092 136.892 361.797 137.22C361.501 137.537 361.244 137.893 361.025 138.287V135.447H357.529V153.174ZM375.181 153.667C376.593 153.667 377.791 153.437 378.776 152.977C379.772 152.507 380.647 151.779 381.402 150.794V153.174H384.866V142.292C384.866 141.526 384.833 140.82 384.767 140.174C384.702 139.518 384.51 138.878 384.193 138.254C383.613 137.083 382.721 136.24 381.517 135.726C380.324 135.212 378.94 134.955 377.364 134.955C375.285 134.955 373.627 135.409 372.391 136.317C371.154 137.225 370.317 138.429 369.88 139.928L373.491 141.061C373.786 140.153 374.306 139.512 375.05 139.14C375.794 138.768 376.566 138.582 377.364 138.582C378.568 138.582 379.454 138.828 380.024 139.321C380.593 139.802 380.915 140.552 380.992 141.57C379.438 141.799 377.994 142.024 376.659 142.243C375.335 142.451 374.207 142.708 373.277 143.014C371.877 143.496 370.853 144.179 370.208 145.066C369.562 145.941 369.239 147.025 369.239 148.316C369.239 149.29 369.464 150.182 369.912 150.991C370.372 151.801 371.045 152.452 371.931 152.945C372.818 153.426 373.901 153.667 375.181 153.667ZM375.969 150.515C375.039 150.515 374.328 150.302 373.835 149.875C373.354 149.448 373.113 148.912 373.113 148.267C373.113 147.687 373.299 147.216 373.671 146.855C374.054 146.494 374.585 146.187 375.263 145.936C375.887 145.728 376.637 145.547 377.512 145.394C378.388 145.23 379.531 145.038 380.943 144.82C380.932 145.235 380.904 145.701 380.861 146.215C380.817 146.718 380.713 147.172 380.549 147.577C380.417 147.982 380.16 148.414 379.777 148.874C379.405 149.334 378.902 149.722 378.267 150.039C377.633 150.357 376.867 150.515 375.969 150.515ZM393.291 153.174H397.263L403.697 135.447H399.725L395.277 148.299L390.812 135.447H386.856L393.291 153.174ZM414.061 153.667C415.768 153.667 417.328 153.229 418.739 152.354C420.162 151.467 421.212 150.22 421.891 148.611L417.984 147.429C417.196 149.115 415.812 149.957 413.832 149.957C412.486 149.957 411.424 149.569 410.647 148.792C409.87 148.004 409.405 146.877 409.252 145.411H422.088C422.241 143.277 422.006 141.427 421.382 139.863C420.758 138.298 419.801 137.089 418.51 136.235C417.229 135.381 415.67 134.955 413.832 134.955C412.092 134.955 410.56 135.349 409.236 136.137C407.912 136.913 406.877 138.019 406.133 139.452C405.389 140.886 405.017 142.571 405.017 144.508C405.017 146.302 405.395 147.889 406.15 149.268C406.916 150.647 407.977 151.725 409.334 152.501C410.691 153.278 412.267 153.667 414.061 153.667ZM413.996 138.418C415.221 138.418 416.162 138.741 416.819 139.387C417.486 140.021 417.908 141.033 418.083 142.423H409.351C409.821 139.753 411.369 138.418 413.996 138.418ZM426.079 153.174H430.034V129.046H426.079V153.174Z" fill="#6266EA"/>
<path d="M34.52 279H45.68C48.152 279 50.06 278.31 51.404 276.93C52.76 275.55 53.438 273.72 53.438 271.44C53.438 270.06 53.096 268.83 52.412 267.75C51.728 266.67 50.744 265.854 49.46 265.302C50.312 264.81 50.984 264.108 51.476 263.196C51.968 262.284 52.214 261.234 52.214 260.046C52.214 258.87 51.932 257.754 51.368 256.698C50.804 255.63 49.964 254.76 48.848 254.088C47.744 253.416 46.364 253.08 44.708 253.08H34.52V279ZM38.336 263.664V256.626H44.654C45.782 256.626 46.682 256.95 47.354 257.598C48.026 258.246 48.362 259.074 48.362 260.082C48.362 261.21 48.002 262.092 47.282 262.728C46.574 263.352 45.698 263.664 44.654 263.664H38.336ZM38.336 275.418V267.21H45.338C46.634 267.21 47.666 267.612 48.434 268.416C49.202 269.208 49.586 270.192 49.586 271.368C49.586 272.628 49.16 273.618 48.308 274.338C47.456 275.058 46.388 275.418 45.104 275.418H38.336ZM62.51 279.54C65.606 279.54 67.94 278.418 69.512 276.174V279H72.842V267.03C72.842 266.214 72.806 265.452 72.734 264.744C72.662 264.036 72.47 263.364 72.158 262.728C71.558 261.444 70.61 260.508 69.314 259.92C68.03 259.32 66.518 259.02 64.778 259.02C62.534 259.02 60.734 259.512 59.378 260.496C58.022 261.48 57.11 262.806 56.642 264.474L60.152 265.554C60.488 264.474 61.082 263.694 61.934 263.214C62.786 262.734 63.722 262.494 64.742 262.494C66.254 262.494 67.346 262.818 68.018 263.466C68.702 264.102 69.074 265.092 69.134 266.436C67.55 266.652 66.002 266.88 64.49 267.12C62.978 267.348 61.658 267.624 60.53 267.948C59.03 268.428 57.89 269.142 57.11 270.09C56.33 271.038 55.94 272.244 55.94 273.708C55.94 274.764 56.186 275.736 56.678 276.624C57.182 277.5 57.92 278.208 58.892 278.748C59.876 279.276 61.082 279.54 62.51 279.54ZM63.176 276.462C61.976 276.462 61.088 276.186 60.512 275.634C59.948 275.082 59.666 274.428 59.666 273.672C59.666 272.904 59.918 272.298 60.422 271.854C60.938 271.41 61.58 271.056 62.348 270.792C63.164 270.552 64.124 270.342 65.228 270.162C66.344 269.982 67.634 269.784 69.098 269.568C69.086 270.024 69.056 270.534 69.008 271.098C68.96 271.662 68.858 272.166 68.702 272.61C68.558 273.246 68.252 273.858 67.784 274.446C67.328 275.034 66.71 275.52 65.93 275.904C65.162 276.276 64.244 276.462 63.176 276.462ZM84.9501 279.522C87.4101 279.522 89.3361 278.976 90.7281 277.884C92.1321 276.792 92.8341 275.286 92.8341 273.366C92.8341 272.358 92.6241 271.506 92.2041 270.81C91.7961 270.114 91.1121 269.514 90.1521 269.01C89.1921 268.494 87.8961 268.026 86.2641 267.606C84.7401 267.222 83.5881 266.892 82.8081 266.616C82.0401 266.328 81.5181 266.04 81.2421 265.752C80.9661 265.452 80.8281 265.086 80.8281 264.654C80.8281 263.91 81.1821 263.328 81.8901 262.908C82.5981 262.476 83.5221 262.284 84.6621 262.332C85.8501 262.38 86.8161 262.68 87.5601 263.232C88.3041 263.772 88.7421 264.504 88.8741 265.428L92.7261 264.726C92.5101 262.998 91.6641 261.618 90.1881 260.586C88.7121 259.542 86.8581 259.02 84.6261 259.02C82.3461 259.02 80.5161 259.554 79.1361 260.622C77.7561 261.678 77.0661 263.088 77.0661 264.852C77.0661 265.8 77.2701 266.61 77.6781 267.282C78.0981 267.942 78.7941 268.518 79.7661 269.01C80.7501 269.502 82.0761 269.97 83.7441 270.414C85.2681 270.822 86.4021 271.164 87.1461 271.44C87.8901 271.716 88.3761 272.01 88.6041 272.322C88.8441 272.622 88.9641 273.018 88.9641 273.51C88.9641 274.35 88.6281 275.01 87.9561 275.49C87.2961 275.97 86.3781 276.21 85.2021 276.21C83.9061 276.21 82.8201 275.922 81.9441 275.346C81.0801 274.77 80.5281 273.972 80.2881 272.952L76.4361 273.546C76.7721 275.442 77.6841 276.912 79.1721 277.956C80.6601 279 82.5861 279.522 84.9501 279.522ZM97.1769 256.374H100.939V252.72H97.1769V256.374ZM97.1769 279H100.939V259.56H97.1769V279ZM114.66 279.54C116.748 279.54 118.524 279.036 119.988 278.028C121.452 277.02 122.502 275.562 123.138 273.654L119.322 272.754C118.926 273.798 118.35 274.602 117.594 275.166C116.85 275.718 115.872 275.994 114.66 275.994C112.884 275.994 111.54 275.376 110.628 274.14C109.728 272.904 109.272 271.284 109.26 269.28C109.272 267.336 109.71 265.734 110.574 264.474C111.45 263.202 112.812 262.566 114.66 262.566C115.752 262.566 116.718 262.872 117.558 263.484C118.41 264.084 119.022 264.93 119.394 266.022L123.138 264.942C122.658 263.118 121.662 261.678 120.15 260.622C118.65 259.554 116.838 259.02 114.714 259.02C112.758 259.02 111.072 259.458 109.656 260.334C108.252 261.21 107.172 262.422 106.416 263.97C105.66 265.506 105.276 267.276 105.264 269.28C105.276 271.248 105.648 273.006 106.38 274.554C107.124 276.102 108.192 277.32 109.584 278.208C110.988 279.096 112.68 279.54 114.66 279.54ZM134.372 279H149.87V275.454H138.134V253.08H134.372V279ZM158.416 279.54C161.512 279.54 163.846 278.418 165.418 276.174V279H168.748V267.03C168.748 266.214 168.712 265.452 168.64 264.744C168.568 264.036 168.376 263.364 168.064 262.728C167.464 261.444 166.516 260.508 165.22 259.92C163.936 259.32 162.424 259.02 160.684 259.02C158.44 259.02 156.64 259.512 155.284 260.496C153.928 261.48 153.016 262.806 152.548 264.474L156.058 265.554C156.394 264.474 156.988 263.694 157.84 263.214C158.692 262.734 159.628 262.494 160.648 262.494C162.16 262.494 163.252 262.818 163.924 263.466C164.608 264.102 164.98 265.092 165.04 266.436C163.456 266.652 161.908 266.88 160.396 267.12C158.884 267.348 157.564 267.624 156.436 267.948C154.936 268.428 153.796 269.142 153.016 270.09C152.236 271.038 151.846 272.244 151.846 273.708C151.846 274.764 152.092 275.736 152.584 276.624C153.088 277.5 153.826 278.208 154.798 278.748C155.782 279.276 156.988 279.54 158.416 279.54ZM159.082 276.462C157.882 276.462 156.994 276.186 156.418 275.634C155.854 275.082 155.572 274.428 155.572 273.672C155.572 272.904 155.824 272.298 156.328 271.854C156.844 271.41 157.486 271.056 158.254 270.792C159.07 270.552 160.03 270.342 161.134 270.162C162.25 269.982 163.54 269.784 165.004 269.568C164.992 270.024 164.962 270.534 164.914 271.098C164.866 271.662 164.764 272.166 164.608 272.61C164.464 273.246 164.158 273.858 163.69 274.446C163.234 275.034 162.616 275.52 161.836 275.904C161.068 276.276 160.15 276.462 159.082 276.462ZM173.422 279H177.22V269.19C177.22 268.05 177.4 266.994 177.76 266.022C178.12 265.05 178.756 264.27 179.668 263.682C180.316 263.262 181.03 263.016 181.81 262.944C182.59 262.872 183.292 262.92 183.916 263.088V259.56C183.04 259.392 182.11 259.398 181.126 259.578C180.154 259.758 179.302 260.118 178.57 260.658C177.85 261.138 177.25 261.804 176.77 262.656V259.56H173.422V279ZM192.307 279.54C195.403 279.54 197.737 278.418 199.309 276.174V279H202.639V267.03C202.639 266.214 202.603 265.452 202.531 264.744C202.459 264.036 202.267 263.364 201.955 262.728C201.355 261.444 200.407 260.508 199.111 259.92C197.827 259.32 196.315 259.02 194.575 259.02C192.331 259.02 190.531 259.512 189.175 260.496C187.819 261.48 186.907 262.806 186.439 264.474L189.949 265.554C190.285 264.474 190.879 263.694 191.731 263.214C192.583 262.734 193.519 262.494 194.539 262.494C196.051 262.494 197.143 262.818 197.815 263.466C198.499 264.102 198.871 265.092 198.931 266.436C197.347 266.652 195.799 266.88 194.287 267.12C192.775 267.348 191.455 267.624 190.327 267.948C188.827 268.428 187.687 269.142 186.907 270.09C186.127 271.038 185.737 272.244 185.737 273.708C185.737 274.764 185.983 275.736 186.475 276.624C186.979 277.5 187.717 278.208 188.689 278.748C189.673 279.276 190.879 279.54 192.307 279.54ZM192.973 276.462C191.773 276.462 190.885 276.186 190.309 275.634C189.745 275.082 189.463 274.428 189.463 273.672C189.463 272.904 189.715 272.298 190.219 271.854C190.735 271.41 191.377 271.056 192.145 270.792C192.961 270.552 193.921 270.342 195.025 270.162C196.141 269.982 197.431 269.784 198.895 269.568C198.883 270.024 198.853 270.534 198.805 271.098C198.757 271.662 198.655 272.166 198.499 272.61C198.355 273.246 198.049 273.858 197.581 274.446C197.125 275.034 196.507 275.52 195.727 275.904C194.959 276.276 194.041 276.462 192.973 276.462ZM211.866 279H215.682L222.738 259.56H218.94L213.774 274.284L208.608 259.56H204.81L211.866 279ZM233.9 279.54C235.784 279.54 237.494 279.066 239.03 278.118C240.566 277.158 241.712 275.808 242.468 274.068L238.778 272.898C237.794 274.962 236.108 275.994 233.72 275.994C232.088 275.994 230.804 275.502 229.868 274.518C228.932 273.534 228.386 272.142 228.23 270.342H242.72C242.852 268.014 242.576 266.004 241.892 264.312C241.208 262.62 240.17 261.318 238.778 260.406C237.386 259.482 235.7 259.02 233.72 259.02C231.824 259.02 230.162 259.446 228.734 260.298C227.306 261.15 226.19 262.356 225.386 263.916C224.594 265.476 224.198 267.318 224.198 269.442C224.198 271.446 224.6 273.21 225.404 274.734C226.22 276.246 227.354 277.428 228.806 278.28C230.27 279.12 231.968 279.54 233.9 279.54ZM233.864 262.35C236.804 262.35 238.472 264.036 238.868 267.408H228.32C228.56 265.764 229.142 264.51 230.066 263.646C230.99 262.782 232.256 262.35 233.864 262.35ZM247.118 279H250.88V252.54H247.118V279ZM271.791 279.54C273.483 279.54 274.977 279.198 276.273 278.514C277.581 277.83 278.607 276.882 279.351 275.67C280.095 274.458 280.467 273.06 280.467 271.476C280.467 270.18 280.197 268.98 279.657 267.876C279.129 266.76 278.343 265.836 277.299 265.104C278.955 263.772 279.783 261.99 279.783 259.758C279.783 258.282 279.441 257.004 278.757 255.924C278.073 254.844 277.131 254.01 275.931 253.422C274.731 252.834 273.351 252.54 271.791 252.54C270.231 252.54 268.845 252.834 267.633 253.422C266.433 254.01 265.491 254.844 264.807 255.924C264.123 257.004 263.781 258.282 263.781 259.758C263.781 261.942 264.609 263.724 266.265 265.104C265.221 265.848 264.435 266.772 263.907 267.876C263.391 268.98 263.133 270.18 263.133 271.476C263.133 273.06 263.499 274.458 264.231 275.67C264.975 276.882 265.995 277.83 267.291 278.514C268.599 279.198 270.099 279.54 271.791 279.54ZM271.791 263.358C270.603 263.358 269.637 263.058 268.893 262.458C268.149 261.858 267.777 260.958 267.777 259.758C267.777 258.546 268.149 257.64 268.893 257.04C269.637 256.428 270.603 256.122 271.791 256.122C272.979 256.122 273.939 256.428 274.671 257.04C275.415 257.64 275.787 258.546 275.787 259.758C275.787 260.958 275.415 261.858 274.671 262.458C273.939 263.058 272.979 263.358 271.791 263.358ZM271.791 275.958C270.399 275.958 269.271 275.58 268.407 274.824C267.543 274.056 267.111 272.94 267.111 271.476C267.111 270.012 267.537 268.896 268.389 268.128C269.253 267.348 270.387 266.958 271.791 266.958C273.195 266.958 274.323 267.348 275.175 268.128C276.039 268.896 276.471 270.012 276.471 271.476C276.471 272.94 276.039 274.056 275.175 274.824C274.311 275.58 273.183 275.958 271.791 275.958Z" fill="white"/>
<rect x="0.5" y="0.5" width="752" height="322" rx="7.5" stroke="#EFEFEF"/>
<defs>
<linearGradient id="paint0_linear" x1="377" y1="0" x2="377" y2="323" gradientUnits="userSpaceOnUse">
<stop offset="0.210477" stop-color="#E4E4E4" stop-opacity="0"/>
<stop offset="1" stop-opacity="0.4"/>
</linearGradient>
</defs>
</svg>
